<?xml version="1.0" standalone="no"?>
<!DOCTYPE svg PUBLIC "-//W3C//DTD SVG 1.1//EN" "http://www.w3.org/Graphics/SVG/1.1/DTD/svg11.dtd" >
<svg xmlns="http://www.w3.org/2000/svg">
<metadata>
This is a custom SVG webfont generated by Font Squirrel.
Copyright   :  Christine Mauerkirchner und Rainer Grunert Schwalbach 1995
</metadata>
<defs>
<font id="ExmouthRegular" horiz-adv-x="647" >
<font-face units-per-em="2048" ascent="1638" descent="-410" />
<missing-glyph horiz-adv-x="355" />
<glyph unicode=" "  horiz-adv-x="355" />
<glyph unicode="&#x09;" horiz-adv-x="355" />
<glyph unicode="&#xa0;" horiz-adv-x="355" />
<glyph unicode="!" horiz-adv-x="862" d="M-76 61q19 41 63 66q31 -15 63 -61q-14 -35 -65 -68q-37 22 -61 63zM30 134l496 659h128q-304 -312 -598 -664l-13 -7z" />
<glyph unicode="&#x22;" horiz-adv-x="579" d="M632 1208q0 88 48 88q34 0 34 -126q0 17 -25 -414h-24q-33 428 -33 452zM765 1214q0 82 49 82q37 0 37 -124q0 5 -28 -416h-26q-10 114 -20 229q-12 138 -12 229z" />
<glyph unicode="#" horiz-adv-x="1260" d="M83 347l17 53h267l102 290h-269l17 53h270l124 367h69l-124 -367h281l123 367h70l-126 -367h274l-20 -53h-269l-100 -290h271l-17 -53h-274l-124 -362h-69l124 362h-278l-126 -362h-68l122 362h-267zM439 400h278l100 290h-280z" />
<glyph unicode="$" horiz-adv-x="758" d="M-111 145q0 84 64 84q31 0 31 -35q0 -23 -29 -40t-29 -27q0 -22 76 -85l211 259q-27 68 -27 98q0 82 84 133q75 46 160 40q39 53 93 107l10 -11q-5 -22 -75 -107q87 -59 87 -109q0 -48 -37 -48q-29 0 -29 34q0 10 7 29t7 29q0 12 -19.5 28t-32.5 18l-152 -188 q27 -79 27 -112q0 -99 -83 -168q-78 -66 -179 -66q-20 0 -39 3q-34 -49 -84 -98l-12 13q27 36 68 94q-98 72 -98 125zM30 35l25 -1q74 -5 129 36q60 45 60 119q0 29 -20 86zM260 435q0 -21 16 -55l135 166l-15 2q-49 0 -91 -31q-45 -34 -45 -82z" />
<glyph unicode="%" horiz-adv-x="1041" d="M-54 -95l6 12q114 105 271 272q131 141 263 281q61 69 123 137q82 90 133 123l14 -12q-35 -67 -390.5 -436t-407.5 -390zM10 435q0 124 148 222q134 89 265 89q109 0 109 -69q0 -107 -168 -225q-159 -112 -272 -112q-37 0 -59.5 29t-22.5 66zM59 398q0 -28 38 -28 q104 0 251 102q156 109 156 208q0 41 -56 41q-78 0 -232 -123q-157 -126 -157 -200zM360 94q0 122 149 221q136 90 265 90q110 0 110 -69q0 -108 -170 -226q-159 -111 -272 -111q-37 0 -60 30q-22 27 -22 65zM409 56q0 -27 38 -27q102 0 251 102q158 108 158 205 q0 44 -59 44q-75 0 -230 -124q-158 -128 -158 -200z" />
<glyph unicode="&#x26;" horiz-adv-x="1356" d="M-179 -385q0 114 94 171q78 48 197 44h27l9 -12l-11 -17q-175 -23 -192 -29q-96 -35 -96 -149q0 -56 53 -91q47 -31 105 -31q209 0 398 210q186 206 180 416l-1 28q-166 -140 -290 -140q-54 0 -97 32q-47 35 -47 88q0 121 145 190q73 35 250 73q10 98 61 175 q62 93 151 93q98 0 98 -79q0 -133 -279 -213q0 -85 22 -160q245 266 356 266q28 0 57 -25t29 -53q0 -55 -46 -55q-22 0 -41.5 17t-19.5 39t12 47q-84 -17 -186 -111q-30 -28 -153 -162q24 -111 24 -187q0 -221 -175 -376q-168 -148 -392 -148q-87 0 -154 31q-88 41 -88 118z M218 99q0 -54 82 -54q117 0 276 143q-17 67 -28 172q-108 -38 -201 -100q-129 -86 -129 -161zM576 402q116 36 161 61q91 52 91 131q0 19 -17 32.5t-36 13.5q-87 0 -142 -78q-47 -65 -57 -160z" />
<glyph unicode="'" horiz-adv-x="331" d="M619 998q124 168 154 168q34 0 34 -31q0 -28 -74 -87.5t-103 -59.5z" />
<glyph unicode="(" horiz-adv-x="990" d="M363 126q0 355 269 662q248 282 602 404q111 38 152 38q16 0 19 -12l-14 -16q-56 -17 -166 -52q-291 -103 -549 -431q-267 -340 -267 -637q0 -40 20.5 -116.5t20.5 -111.5q0 -15 -18 -14l-8 1q-61 132 -61 285z" />
<glyph unicode=")" horiz-adv-x="990" d="M-247 -169l15 16q55 16 165 51q290 102 549 431q267 340 267 637q0 40 -20.5 116.5t-20.5 112.5q0 15 18 14l8 -1q62 -134 62 -288q0 -355 -269 -662q-247 -281 -602 -401q-112 -38 -153 -38q-16 0 -19 12z" />
<glyph unicode="*" horiz-adv-x="1937" d="M-79 1326q0 11 14 15q42 -11 126 -32q-11 43 -24 131l14 10l12 -10q11 -29 35 -125q15 14 102 88l14 -16q-31 -33 -95 -98q129 -47 129 -53q0 -15 -16 -15q-5 0 -128 33q11 -43 26 -131l-19 -8q-6 6 -37 132l-111 -86l-9 12q5 13 96 103q-43 13 -128 41z" />
<glyph unicode="+" horiz-adv-x="1206" d="M93 468v48h465v469h55v-469h465v-49l-465 1v-468h-55v468h-465z" />
<glyph unicode="," horiz-adv-x="379" d="M-211 -39q7 24 84 113t97 89q32 0 32 -37q0 -31 -85.5 -103t-116.5 -73z" />
<glyph unicode="-" horiz-adv-x="431" d="M-89 229l24 60q15 27 49 27q8 0 116 -4q70 -3 115 3l-24 -58q-17 -29 -48 -29q-8 0 -116 4q-70 3 -116 -3z" />
<glyph unicode="." horiz-adv-x="274" d="M-178 61q19 41 63 66q28 -14 61 -61q-15 -37 -63 -68q-37 22 -61 63z" />
<glyph unicode="/" horiz-adv-x="494" d="M-302 -157q0 2 144 174q127 157 390 466q123 135 325 344q266 272 329 340l10 3l12 -11q-3 -15 -84 -106l-102 -112q-148 -175 -450 -519q-185 -195 -552 -586l-10 -4z" />
<glyph unicode="0" d="M-96 115q0 164 249 391q244 224 406 224q37 0 62 -27.5t25 -65.5q0 -152 -242.5 -394.5t-393.5 -242.5q-46 0 -76 34.5t-30 80.5zM-53 87q0 -61 69 -61q134 0 370 239t236 374q0 25 -17.5 44t-41.5 19q-99 0 -357.5 -257t-258.5 -358z" />
<glyph unicode="1" d="M-78 0l489 585q-116 -68 -232 -137q-183 -106 -219 -112l-10 14l7 10q111 57 658 385q4 1 12 4l12 -13q-20 -43 -282 -353q-163 -191 -327 -383h-108z" />
<glyph unicode="2" d="M-241 27l9 15q38 20 116 61q210 113 461 349q-130 -82 -198 -82q-30 0 -51.5 23.5t-21.5 54.5q0 114 154 208q137 83 260 83q103 0 103 -92q0 -121 -213 -281q-41 -31 -322 -207q101 2 101 -66q0 -33 -22 -65q55 1 164 81t122 80l8 -10q-1 -34 -134 -108 q-129 -72 -172 -72q-26 0 -47.5 17.5t-21.5 43.5q0 31 20 67q-62 -8 -181 -62q-115 -51 -124 -51zM119 428q0 -28 41 -28q66 0 141 56q45 33 118 109q63 65 83 74l9 -12q33 30 33 53q0 22 -32 22q-76 0 -231 -100q-162 -106 -162 -174z" />
<glyph unicode="3" d="M-245 109q0 33 21.5 58.5t54.5 25.5q43 0 43 -48q0 -60 -57 -60q-10 0 -26 9q8 -26 36.5 -45.5t56.5 -19.5q105 0 279 121q184 128 184 225q0 33 -32 33q-35 0 -96.5 -28.5t-94.5 -27.5l-9 13l11 15q29 16 109 43q71 24 106 49q42 30 101 91q67 70 79 105q4 12 4 17 q0 31 -34 31q-45 0 -154 -63q-115 -67 -115 -107q0 -17 21 -17q52 0 141 79q46 42 92 83l12 -12q0 -35 -104 -108q-100 -71 -141 -71q-24 0 -43.5 17t-19.5 41q0 78 107 137q93 52 178 52q47 0 82 -25q40 -28 40 -74q0 -82 -90 -140q-26 -17 -160 -75q78 -35 78 -97 q0 -138 -192 -244q-168 -92 -319 -92q-51 0 -97 28q-52 32 -52 81z" />
<glyph unicode="4" d="M-130 183l6 14q227 193 532 546h127l-591 -522q89 27 260 24l191 214h74l-169 -225q29 0 84 12t81 12h12l12 -20l-4 -11q-49 -31 -207 -30l-154 -197h-113l165 208q-45 5 -80 5q-43 0 -110 -19q-74 -21 -106 -23z" />
<glyph unicode="5" d="M-211 107q0 34 23.5 62t55.5 28q56 0 56 -59q0 -55 -65 -55q-23 0 -42 18q15 -75 85 -75q100 0 288 157q192 161 192 258q0 45 -73 45q-114 0 -253 -140l-13 13l5 10l358 361q61 -30 140 -30q24 0 70 10.5t68 10.5l10 -9q-1 -23 -107 -48q-93 -23 -133 -23q-34 0 -82 17 l-161 -164q64 27 120 27q122 0 122 -111q0 -166 -197 -294q-177 -116 -352 -116q-47 0 -81 29.5t-34 77.5z" />
<glyph unicode="6" d="M-101 108q0 165 266 398q260 227 428 227q37 0 65 -22q30 -25 30 -61q0 -75 -63 -75q-22 0 -40 17t-18 39q0 52 52 70q-122 0 -246 -112q-1 0 -190 -207q116 60 179 60q39 0 63.5 -29.5t24.5 -69.5q0 -119 -162 -236q-151 -108 -275 -108q-50 0 -82 30t-32 79zM-44 69 q0 -39 44 -39q77 0 229 139.5t152 214.5q0 27 -31 27q-104 0 -247 -118q-147 -122 -147 -224z" />
<glyph unicode="7" d="M-76 0q371 454 600 610q-27 -4 -53 -4q-33 0 -96 18.5t-95 18.5q-59 0 -121.5 -66t-67.5 -66l-13 13q6 19 92 119t101 104l13 -14l-23 -38q77 30 146 30q26 0 77 -10t76 -10q72 0 117 34l13 -13l-3 -9q-69 -69 -205 -208q-225 -235 -460 -509h-98z" />
<glyph unicode="8" d="M-108 114q0 113 127 192q67 42 227 98q-22 61 -22 92q0 90 99 171q94 78 186 78q48 0 85 -23q45 -26 45 -71q0 -131 -265 -234q20 -60 20 -99q0 -119 -117 -220q-114 -97 -234 -97q-151 0 -151 113zM-80 114q0 -85 118 -85q97 0 179 60q88 66 88 159q0 46 -40 126 q-124 -29 -217 -85q-128 -77 -128 -175zM311 550q0 -34 43 -107q255 90 255 201q0 72 -98 72q-70 0 -133 -47q-67 -51 -67 -119z" />
<glyph unicode="9" d="M-196 22q0 11 16 12q11 1 35 -2.5t27 -3.5q130 0 272 126q57 51 211 230q-150 -111 -246 -111q-76 0 -76 91q0 119 160 233q148 106 271 106q111 0 111 -105q0 -178 -259 -391q-251 -207 -431 -207q-91 0 -91 22zM96 323q0 -23 30 -23q131 0 333 215l12 -15q65 81 65 137 q0 40 -45 40q-75 0 -235 -140.5t-160 -213.5z" />
<glyph unicode=":" horiz-adv-x="475" d="M-178 61q19 41 63 66q28 -14 61 -61q-15 -37 -63 -68q-37 22 -61 63zM50 343q21 45 61 68q29 -14 63 -64q-13 -32 -65 -65q-38 26 -59 61z" />
<glyph unicode=";" horiz-adv-x="492" d="M-215 -39q7 24 83.5 113t97.5 89q32 0 32 -37q0 -31 -85.5 -103t-116.5 -73zM93 343q21 45 61 68q30 -14 63 -64q-13 -32 -65 -65q-42 25 -59 61z" />
<glyph unicode="&#x3c;" horiz-adv-x="932" d="M59 437v109l780 334v-80l-711 -308l711 -309v-80z" />
<glyph unicode="=" horiz-adv-x="1263" d="M124 271v65h978v-65h-978zM124 653v66h978v-66h-978z" />
<glyph unicode="&#x3e;" horiz-adv-x="932" d="M56 103v81l709 308l-709 308v80l781 -334v-109z" />
<glyph unicode="?" horiz-adv-x="912" d="M-74 61q19 41 63 66q31 -15 63 -61q-14 -35 -65 -68q-36 22 -61 63zM26 142q1 48 316.5 273.5t315.5 274.5q0 21 -26 38q-22 14 -45 14q-62 0 -181 -64q-129 -70 -129 -125q0 -19 40 -19q79 0 184 78l112 84l8 -8q-1 -48 -133 -116q-124 -64 -180 -64q-80 0 -80 59 q0 87 131 149q110 53 208 53q55 0 92.5 -31.5t37.5 -86.5q0 -112 -146 -199q-34 -21 -242 -109q-79 -33 -275 -210z" />
<glyph unicode="@" horiz-adv-x="1432" d="M-72 448q0 296 209 492q205 193 501 193q246 0 404 -135q169 -142 169 -385q0 -166 -76 -299q-90 -157 -244 -157q-134 0 -159 138q-101 -140 -237 -140q-95 0 -158 72q-60 68 -60 165q0 167 90 295q100 143 259 143q143 0 208 -188l50 168h44q-42 -128 -83 -256 q-52 -172 -52 -253q0 -98 92 -98q138 0 219 142q68 119 68 270q0 226 -166 357q-152 121 -383 121q-269 0 -458 -189.5t-189 -460.5q0 -262 186 -425q177 -155 441 -155q234 0 512 170l19 -26q-247 -180 -549 -180q-285 0 -468 165q-189 172 -189 456zM319 393 q0 -75 51 -133.5t125 -58.5q130 0 222 139q81 125 81 263q0 75 -51.5 131t-124.5 56q-132 0 -223 -136q-80 -121 -80 -261z" />
<glyph unicode="A" horiz-adv-x="2074" d="M139 186q0 115 85 115q61 0 61 -64q0 -78 -73 -78q-18 0 -34 14q-1 -74 100 -117q79 -32 166 -32q272 0 597 227q-226 238 -226 469q0 143 71 242q80 110 218 110q275 0 423 -401q174 154 347 308q229 197 406 302q233 138 421 150q-177 -113 -597 -620q-8 -8 -570 -713 q80 17 174 60q82 39 165 78l8 1l8 -12l-5 -11q-178 -123 -372 -146l-41 -68h-135l50 79q-107 25 -172 57q-57 29 -152 100q-339 -236 -623 -236q-101 0 -190 42q-110 53 -110 144zM852 699q0 -209 208 -430q212 175 227 187q128 108 219 197q-101 366 -375 366 q-131 0 -208 -96q-71 -89 -71 -224zM1084 253q149 -117 320 -150q120 175 120 386q0 65 -12 134q-115 -107 -428 -370zM1512 251q272 313 544 627q414 459 564 520q-224 -42 -572 -313q-56 -43 -514 -441q17 -106 17 -174q0 -109 -39 -219z" />
<glyph unicode="B" horiz-adv-x="2142" d="M156 169q0 34 21 61.5t53 27.5q31 0 54 -20.5t23 -51.5q0 -52 -66 -90q105 -61 244 -61q280 0 577 235q125 98 510 496q316 327 533 446q-111 105 -304 159q-164 46 -345 46q-322 0 -577 -117q-287 -130 -436 -387q-52 -89 -52 -175q0 -111 100 -171q84 -51 202 -51 q192 0 465 141q309 158 309 330q0 71 -71 113q-60 36 -135 36q-358 0 -666 -465l-9 -4l-14 10l2 9q81 187 284 330q208 147 407 147q84 0 151 -43q77 -50 77 -131q0 -211 -296 -366q-253 -132 -486 -132q-134 0 -229 51q-119 64 -119 188q0 94 59 196q150 263 443 396 q260 119 590 119q187 0 358 -49q202 -57 316 -166q96 61 223 128l8 -15l-5 -11q-91 -44 -210 -124q64 -89 64 -182q0 -165 -114 -263q-48 -43 -255 -150q30 -69 30 -131q0 -183 -180 -335q-172 -146 -358 -146q-131 0 -131 95q0 76 178 202q170 120 250 120h3l10 -11l-8 -10 q-116 -43 -239 -120q-166 -105 -166 -180q0 -31 31 -52q26 -17 59 -17q152 0 327 192q173 189 173 343q0 18 -7 42q-39 -22 -95 -22q-33 0 -64 13q-39 17 -39 46q0 56 106 56q52 0 103 -58q132 80 218 197q99 134 99 272q0 41 -17 86q-168 -86 -330 -291 q-274 -345 -344 -422q-203 -226 -398 -338q-240 -138 -521 -138q-115 0 -224 34q-150 47 -150 133zM1645 638q0 -33 75 -33q47 0 75 20q-39 43 -86 43q-64 0 -64 -30z" />
<glyph unicode="C" horiz-adv-x="1543" d="M172 1012q0 251 286 402q227 119 483 119h28l41 -2l12 -14l-9 -12q-598 0 -781 -345q-34 -65 -34 -142q0 -120 114 -196q100 -67 225 -67q46 0 93 10q226 223 534 424q384 251 607 251q145 0 145 -90q0 -226 -612 -463q-203 -79 -544 -138q-102 -91 -225 -272 q-139 -207 -139 -311q0 -72 87 -112q69 -31 150 -31q173 0 392 123q245 138 245 297q0 49 -46 78q-39 23 -91 23q-135 0 -300 -103q-117 -73 -239 -191q-50 -51 -99 -103l-10 11l4 10q78 136 287 267q213 133 364 133q63 0 106 -31q48 -35 48 -96q0 -171 -249 -317 q-223 -130 -408 -130q-110 0 -200 56q-104 65 -104 169q0 231 260 515q-31 -6 -65 -6q-131 0 -237 75q-119 83 -119 209zM797 786q275 33 496 123q598 243 598 442q0 62 -118 62q-235 0 -534 -224q-160 -120 -442 -403z" />
<glyph unicode="D" horiz-adv-x="2057" d="M159 83q0 70 203 70q186 0 427 -90q206 70 320 156q101 76 247 257q184 230 282 334q167 178 331 284q-58 185 -253 280q-165 81 -379 81q-440 0 -735 -308q-243 -253 -243 -413q0 -95 122 -158q103 -54 208 -54q231 0 494 128q311 150 311 355q0 72 -72 112 q-60 32 -136 32q-196 0 -415 -161q-173 -128 -323 -324l-10 -5l-13 12l3 11q86 167 331 328q250 163 433 163q85 0 150 -40q76 -47 76 -127q0 -220 -316 -377q-268 -133 -514 -133q-151 0 -254 76q-114 85 -114 231q0 310 377 509q316 167 656 167q212 0 384 -86 q202 -101 253 -285q264 181 321 183l8 -12l-5 -10q-112 -46 -313 -185q5 -57 5 -108q0 -398 -281 -690q-284 -295 -678 -295q-145 0 -256 35q-216 -39 -358 -39q-274 0 -274 96zM187 83q0 -68 249 -68q142 0 309 33q-187 76 -377 76q-181 0 -181 -41zM819 46 q103 -27 205 -27q394 0 674 272q284 274 284 669q0 31 -5 110q-131 -77 -240 -226q-91 -139 -181 -278q-158 -237 -313 -341q-128 -86 -424 -179z" />
<glyph unicode="E" horiz-adv-x="1461" d="M152 265q0 242 277 411q228 138 501 163l-30 61q-83 -20 -190 -20q-408 0 -408 261q0 203 244 316q185 86 394 86h27l32 -1l16 -13l-13 -13q-123 -15 -245 -31q-148 -21 -236 -66q-116 -59 -172 -173q-20 -44 -20 -104q0 -239 389 -239q102 0 179 21v15v7q0 202 243 362 q223 147 440 147q66 0 112 -25q56 -32 56 -93q0 -144 -338 -288q-261 -111 -474 -142q3 -38 24 -68l45 1h21q129 0 129 -69q0 -41 -62 -41q-55 0 -141 83q-189 -12 -375 -136q-177 -118 -279 -288q-73 -120 -73 -194q0 -85 107 -128q77 -30 179 -30q199 0 403 96 q248 118 248 295q0 53 -53 81q-42 22 -100 22q-161 0 -349 -116q-160 -99 -284 -245l-9 -4l-12 12l1 8q84 136 291.5 254t365.5 118q65 0 116 -30q61 -35 61 -96q0 -195 -255 -321q-210 -103 -427 -103q-144 0 -239 54q-117 68 -117 203zM939 931q206 38 452 141 q331 138 331 265q0 45 -44 70q-36 21 -83 21q-173 0 -385 -168q-200 -159 -271 -329zM995 813q61 -57 105 -57q26 0 26 18q0 39 -98 39h-14h-19z" />
<glyph unicode="F" horiz-adv-x="1565" d="M165 206q0 38 24.5 63.5t61.5 25.5q25 0 43.5 -21.5t18.5 -47.5q0 -22 -15 -43q-16 -24 -37 -24q-33 0 -61 20q30 -145 309 -145q208 0 370 102q128 81 260 250q113 158 226 315q-193 -11 -369 -72q-111 -38 -111 -41h1h-7l-8 12l9 12q184 94 502 115q97 129 300 334 q219 222 330 291l13 3l8 -9l-4 -11q-29 -34 -85 -80q-70 -58 -89 -76q-209 -198 -336 -438l111 13q118 142 189 142q48 0 48 -39q0 -45 -76 -86q-59 -33 -116 -44q-26 -60 -52 -121q-40 -80 -83 -80q-10 0 -28 1t-26 2l-12 6q2 23 58 96q46 59 78 92l-106 -13 q-195 -335 -399 -497q-254 -203 -590 -203q-132 0 -222 35q-128 50 -128 161zM676 1003q0 86 45 150q157 224 521 286q163 27 619 27q114 0 341.5 -1.5t340.5 -1.5q92 0 139 20q33 13 114 75l10 4l11 -14l-3 -10q-165 -178 -547 -178q-140 0 -417 31t-416 31 q-242 0 -457 -93q-276 -119 -276 -330q0 -81 85 -123q66 -34 156 -34q136 0 310 82q203 96 203 216q0 54 -44 84q-38 26 -93 26q-233 0 -456 -199q-32 -35 -99 -99l-9 -1l-7 8l3 11q51 103 249 206q189 99 313 99q64 0 111 -29q56 -34 56 -95q0 -141 -205 -245 q-176 -90 -332 -90q-103 0 -176 41q-90 50 -90 146zM1684 758q35 7 89 35q66 33 66 58q0 18 -18 18q-33 0 -78 -41q-38 -34 -59 -70z" />
<glyph unicode="G" horiz-adv-x="2081" d="M261 804q0 280 330 472q276 160 558 160h27l36 -1l15 -14l-12 -10q-60 -3 -179 -15q-278 -41 -488 -178q-261 -170 -261 -417q0 -255 458 -285q84 184 373 405q266 205 583 349q325 148 520 148q151 0 151 -90q0 -105 -211 -276q-140 -114 -310 -213q-194 -113 -461 -200 q-95 -31 -484 -139q-118 -171 -118 -280q0 -125 186 -125q233 0 582 200q64 37 161 128q103 98 156 132h9l7 -7l-3 -11q-86 -78 -243 -257q-75 -119 -229 -352q104 42 241 146q174 133 227 164l7 1l11 -13l-5 -10q-120 -88 -239 -176q-141 -98 -259 -143 q-134 -172 -378 -327q-269 -172 -458 -172q-122 0 -122 82q0 114 331 244q140 55 442 141q143 187 166 214q98 120 191 192q-364 -203 -590 -203q-118 0 -191 58q-80 63 -80 179q0 92 29 187q-476 25 -476 312zM468 -519q0 -55 101 -55q178 0 357 126q156 109 267 278 q-222 -56 -412 -130q-313 -121 -313 -219zM926 533q385 110 466 137q258 85 446 193q150 85 299 205q209 169 209 260q0 69 -121 69q-290 0 -719 -310q-375 -271 -580 -554z" />
<glyph unicode="H" horiz-adv-x="1815" d="M128 119q0 221 416 396q244 103 610 180q238 321 467 491q-80 -45 -152 -45q-97 0 -114 70l-30 130q-42 71 -198 71t-294 -68q-170 -84 -170 -225q0 -63 62 -100q53 -33 119 -33q96 0 236 65q115 54 215 128l10 -9q-26 -63 -208 -139q-169 -71 -252 -71q-79 0 -139 39 q-68 46 -68 122q0 150 175 240q143 73 306 73q99 0 178 -31q100 -40 128 -118q7 -34 14 -67q11 -40 45 -40q92 0 223 97.5t141 98.5l7 -10q-1 -5 -4 -12q-9 -15 -98 -87q-100 -81 -117 -98q-78 -80 -170 -216l-154 -228l270 46q45 47 135 140q175 181 383 325 q273 191 443 191q169 0 169 -108q0 -193 -405 -361q-310 -127 -580 -159q-154 -180 -295 -369q-220 -296 -220 -374q0 -43 54 -43q68 0 147 53q47 31 118 99q57 55 70 56l9 -8l-2 -12q-98 -103 -154 -144q-98 -71 -191 -71q-107 0 -107 106q0 132 151 344q66 93 249 304 l-263 -43q-35 -45 -104 -136q-175 -225 -381 -372q-255 -181 -488 -181q-192 0 -192 113zM157 121q0 -88 165 -88q255 0 480 205q160 146 330 426q-328 -67 -577 -173q-398 -168 -398 -370zM1753 828q247 28 549 154q386 161 386 337q0 83 -146 83q-253 0 -789 -574z" />
<glyph unicode="I" horiz-adv-x="1485" d="M137 171q0 43 25.5 74.5t67.5 31.5q57 0 57 -59q0 -64 -63 -64q-21 0 -41 21q-6 -12 -6 -28q0 -75 94 -110q68 -25 160 -25q313 0 543 225q129 126 354 493q-168 59 -168 212q0 268 376 437q304 137 609 137q115 0 125 -18l-6 -8q-300 -101 -483 -289 q-128 -132 -323 -465q102 6 192 69q69 48 146 143q63 82 127 164l10 5l12 -10q-1 -10 -79 -112q-102 -132 -182 -193q-114 -88 -243 -94q-441 -721 -1011 -721q-109 0 -189 37q-104 49 -104 147zM1193 911q0 -52 51 -99q44 -41 99 -58q206 294 368 445q219 205 490 295 q-267 -2 -503 -85q-276 -98 -418 -282q-87 -112 -87 -216z" />
<glyph unicode="J" horiz-adv-x="1147" d="M-134 -356q0 106 260 233q186 92 361 138q71 82 290 396q193 277 277 351h-41h-5q-98 0 -164 40q-82 50 -82 147q0 177 223 323q182 120 472 196q249 66 423 66q64 0 70 -17q-7 -13 -18 -21q-195 -131 -368 -316q-158 -182 -317 -363q59 23 420 246l10 -11l-6 -12 q-266 -193 -452 -260q-104 -118 -280 -356q-185 -249 -278 -358q77 32 183 100q87 57 175 114q16 0 16 -14q0 -20 -183 -124q-164 -93 -224 -118q-138 -153 -312 -284q-229 -173 -364 -173q-31 0 -58.5 23t-27.5 54zM-107 -352q0 -53 62 -53q113 0 278 147q62 55 232 238 q-151 -42 -329 -128q-243 -119 -243 -204zM860 940q0 -69 66 -114q55 -37 119 -37h10l29 2q486 538 808 716l-16 1h-8q-248 0 -541 -128q-322 -142 -438 -340q-29 -50 -29 -100z" />
<glyph unicode="K" horiz-adv-x="2031" d="M150 169q0 37 24.5 69.5t60.5 32.5q59 0 59 -53q0 -64 -63 -64q-20 0 -35 14q-3 -13 -3 -29q0 -68 88 -100q64 -24 148 -24q172 0 333 110q115 78 261 244q190 216 379 432q221 245 410 401q-156 -71 -253 -71q-114 0 -114 64q0 14 6.5 39.5t6.5 39.5q0 54 -100 96 q-84 35 -149 35q-153 0 -295 -75q-169 -90 -169 -229q0 -69 69 -113q60 -38 132 -38q94 0 224 59q111 51 204 122l7 -10l-3 -11q-236 -186 -425 -186q-91 0 -158 45q-76 51 -76 139q0 147 180 241q150 80 312 80q82 0 183 -53q117 -61 117 -134q0 -9 -4.5 -25.5t-4.5 -25.5 q0 -31 68 -31q144 0 332 127l176 128l7 -10q-4 -14 -102 -95q-62 -50 -123 -100q-181 -166 -480 -592q-183 -259 -410 -426q-276 -203 -540 -203q-107 0 -182 36q-98 48 -98 144zM1334 92q0 90 91 214l170 204q92 113 92 177l-3 25q-47 -9 -86 -9q-110 0 -110 51q0 35 92 35 q59 0 123 -44q192 79 283 162q343 311 362 326q258 208 411 208q141 0 141 -77q0 -56 -54 -56q-17 0 -32.5 16t-15.5 33q0 26 27 45q-34 11 -75 11q-120 0 -281 -133q-45 -37 -233 -225q-208 -207 -522 -334q19 -72 19 -113q0 -101 -92 -222q-31 -40 -171 -188 q-92 -97 -92 -139q0 -48 60 -48q78 0 246.5 122t172.5 123l12 -15l-5 -9l-206 -154q-140 -94 -226 -94q-44 0 -71 32t-27 76zM1517 749q0 -18 80 -18q40 0 74 7q-49 30 -106 30q-48 0 -48 -19z" />
<glyph unicode="L" horiz-adv-x="1905" d="M174 87q0 79 186 79t450 -76q308 99 602 544q-161 -30 -285 -30q-176 0 -302 63q-162 81 -162 241q0 232 280 373q188 94 484 140q110 17 128 17q40 0 42 -12l-13 -15q-61 -5 -183 -19q-260 -38 -448 -136q-263 -136 -263 -343q0 -149 149 -225q117 -59 280 -59 q97 0 311 31q295 367 421 489q299 287 542 287q153 0 153 -106q0 -209 -392 -434q-326 -187 -587 -234q-209 -272 -308 -358q-139 -120 -412 -232q137 -54 309 -54q197 0 429 135q56 35 118 72l9 -11l-6 -13q-306 -209 -542 -209q-185 0 -356 65q-326 -66 -433 -66 q-201 0 -201 96zM200 85q0 -36 67 -55q46 -13 98 -13q208 0 398 57q-222 68 -407 68q-156 0 -156 -57zM1586 695q248 45 559 225q375 217 375 415q0 77 -117 77q-231 0 -474 -261q-82 -89 -343 -456z" />
<glyph unicode="M" horiz-adv-x="2227" d="M157 159q0 99 93 99q24 0 41.5 -21t17.5 -45q0 -71 -79 -71q-13 0 -28 8q3 -57 67 -90q52 -27 116 -27q213 0 528 298q59 57 559 604q336 368 537 469q116 59 173 59h2h9l8 -11l-4 -11q-251 -253 -585 -675q-300 -379 -534 -723q151 120 365 352l621 675q269 291 523 376 q52 17 64 17q16 0 16 -12l-3 -10q-154 -157 -595 -700q-485 -597 -485 -668q0 -28 43 -28q90 0 226 98q157 113 185 122l8 -9q-7 -46 -190 -144q-177 -95 -235 -95q-42 0 -78 32.5t-36 74.5q0 165 466 682q408 452 632 620q-240 -63 -508 -356l-619 -678 q-160 -174 -199 -212q-127 -124 -230 -172q-27 19 -27 57q0 191 466 719q404 458 650 642q-238 -63 -589 -436l-590 -650q-336 -334 -571 -334q-82 0 -152 44q-79 51 -79 130z" />
<glyph unicode="N" horiz-adv-x="1937" d="M141 178q0 43 23 74.5t64 31.5q28 0 50 -18.5t22 -45.5q0 -67 -79 -67q-41 0 -54 37q7 -175 249 -175q383 0 814 516q301 360 632 773l9 4l12 -9l-1 -8q-44 -90 -87 -179q-47 -102 -65 -190q-53 -257 -84 -363q-37 -125 -125 -334l554 684q161 199 353 326 q232 155 445 155q84 0 154 -34q88 -42 88 -117q0 -32 -23 -54.5t-55 -22.5q-49 0 -49 64q0 44 76 59q-38 80 -187 80q-211 0 -439 -151q-189 -126 -348 -323q-175 -214 -350 -429q-201 -250 -332 -442l-15 -9l-7 7v8q27 66 54 131q30 75 40 138q34 230 82 390 q43 142 141 372l-454 -546q-432 -520 -834 -520q-103 0 -179 41q-95 51 -95 146z" />
<glyph unicode="O" horiz-adv-x="1300" d="M168 286q0 258 248 564q229 283 559 483q338 205 591 205q117 0 196 -38q104 -50 104 -156q0 -102 -100 -174q-87 -62 -183 -62h-14l-13 11q77 26 154 53q132 54 132 174q0 91 -98 135q-74 33 -178 33q-560 0 -1127 -845q-204 -304 -204 -488q0 -73 64 -110 q52 -31 130 -31q204 0 467 216q244 200 421 481q183 290 183 494q0 63 -37 108q-40 50 -101 50q-142 0 -306 -167.5t-164 -311.5q0 -45 27.5 -77.5t72.5 -32.5q145 0 265 165q88 120 144 298l12 9l12 -16q0 -133 -150 -305q-155 -178 -288 -178q-57 0 -90 40t-33 98 q0 181 157 342.5t336 161.5q76 0 123 -60q43 -55 43 -133q0 -210 -187 -505q-181 -285 -431 -487q-270 -219 -480 -219q-123 0 -191 76q-66 73 -66 199z" />
<glyph unicode="P" horiz-adv-x="1789" d="M198 188q0 36 22.5 67t57.5 31q27 0 47 -21t20 -48q0 -68 -60 -68q-15 0 -33 6q35 -131 295 -131q242 0 512 247q105 95 466 516q287 334 480 449q-85 104 -230 160q-132 52 -277 52q-186 0 -418 -80q-256 -89 -417 -228q-189 -164 -189 -357q0 -111 95 -176 q83 -56 198 -56q199 0 435 143q262 160 262 345q0 76 -60 116q-51 34 -130 34q-284 0 -624 -411q-30 -39 -68 -82l-10 12q57 158 292 330q239 175 406 175q92 0 152 -40q69 -47 69 -135q0 -216 -252 -374q-223 -140 -452 -140q-135 0 -229 56q-113 68 -113 196 q0 302 390 514q333 182 663 182q335 0 527 -220q49 30 154 87q126 68 146 68q13 0 16 -15l-5 -9q-176 -81 -296 -153q67 -118 67 -209q0 -128 -90 -231q-94 -107 -219 -107q-36 0 -64 23.5t-28 59.5q0 52 82 124q81 71 134 71h1l8 -13l-8 -13q-185 -75 -185 -171 q0 -37 32 -37q101 0 198 132q92 125 92 230q0 62 -41 126q-86 -56 -170 -160q-10 -12 -139 -190q-226 -312 -304 -404q-184 -218 -364 -327q-223 -134 -483 -134q-125 0 -223 36q-138 50 -138 152z" />
<glyph unicode="Q" horiz-adv-x="1587" d="M194 274q0 252 270 541q241 259 590 444.5t588 185.5q116 0 219 -46q131 -58 131 -159q0 -104 -81 -157q-69 -45 -178 -45q-49 0 -49 13q0 6 33 10t99 15q151 34 151 161q0 89 -123 142q-97 41 -200 41q-539 0 -1149 -758q-242 -301 -242 -484q0 -72 75 -111 q59 -31 138 -31q114 0 258 67q-44 99 -48 105q-38 67 -83 67t-98 -30q-67 -38 -89 -44l-10 10q3 31 91 64q77 28 118 28q91 0 212 -148q254 150 510 435q303 337 303 569q0 70 -45 115t-115 45q-226 0 -439 -280q-158 -208 -257 -486l-9 -9l-18 17q193 544 550 739 q82 45 159 45q86 0 142 -49q59 -52 59 -137q0 -229 -307 -579q-270 -307 -516 -445q81 -91 154 -91q160 0 434 218l12 -14l-4 -10q-105 -95 -242 -162q-155 -75 -277 -75q-131 0 -174 80q-158 -72 -277 -72q-266 0 -266 265z" />
<glyph unicode="R" horiz-adv-x="2118" d="M192 188q0 36 22 67t58 31q26 0 46.5 -21t20.5 -48q0 -68 -60 -68q-16 0 -33 6q35 -131 294 -131q195 0 385 136q130 94 300 290l342 393q181 209 493 415q-242 175 -579 175q-295 0 -574 -137q-307 -150 -429 -396q-23 -47 -23 -119q0 -114 94 -172q78 -48 198 -48 q209 0 432 113q263 133 263 321q0 59 -69 95q-57 29 -122 29q-278 0 -593 -359l-13 -6l-11 11l5 13q79 136 271.5 250.5t347.5 114.5q76 0 137 -37q72 -44 72 -115q0 -186 -260 -340q-232 -138 -432 -138q-132 0 -233 65q-117 75 -117 201q0 77 29 136q123 249 440 404 q288 141 587 141q353 0 601 -186q236 159 245 159q11 0 14 -14l-244 -167q115 -143 115 -255q0 -180 -161 -287q-105 -71 -319 -125q16 -56 16 -94q0 -89 -75 -188q-34 -46 -140 -150q-75 -75 -75 -103q0 -20 29 -20q138 0 462 221h5q14 1 14 -13q0 -39 -221 -139 q-213 -97 -275 -97q-37 0 -65.5 28t-28.5 65q0 83 160.5 256.5t160.5 222.5l-2 11q-30 -4 -46 -4q-85 0 -85 40q0 42 42 42q47 0 115 -51q143 17 280 172t137 300q0 75 -63 155q-164 -108 -330 -316q-136 -186 -272 -373q-404 -550 -923 -550q-124 0 -223 36 q-137 50 -137 152zM1595 625q0 -19 47 -19q16 0 35 3q-36 24 -63 26l-19 -8v-2z" />
<glyph unicode="S" horiz-adv-x="1606" d="M167 186q0 47 26 86q29 43 74 43q26 0 47 -18.5t21 -44.5q0 -65 -64 -65q-39 0 -58 36q-4 -17 -4 -38q0 -85 114 -123q80 -27 189 -27q294 0 532 231q126 122 362 479q-211 -44 -347 -44q-168 0 -297 62q-166 79 -166 229q0 259 304 404q233 111 500 111h32l50 -2l9 -9 l-11 -13q-31 -4 -200 -15q-122 -8 -198 -31q-182 -54 -304 -159q-149 -129 -149 -294q0 -133 157 -204q121 -55 273 -55q123 0 362 51l139 194q107 150 306 302q231 177 376 177q140 0 140 -86q0 -165 -325 -362q-252 -153 -480 -219l-110 -183q-160 -265 -402 -423 q-260 -170 -551 -170q-122 0 -215 33q-132 48 -132 147zM1597 815q213 63 412 182q239 142 329 296q23 40 23 62q0 72 -97 72q-159 0 -354 -164q-89 -75 -174 -211q-70 -118 -139 -237z" />
<glyph unicode="T" horiz-adv-x="1552" d="M157 206q0 38 24 63.5t61 25.5q26 0 44.5 -21t18.5 -47q0 -22 -15.5 -45t-37.5 -23q-33 0 -61 20q31 -145 318 -145q222 0 376 112q110 79 269 295l230 313q85 115 295 319q217 213 324 279l13 3l8 -9l-3 -11q-34 -39 -105 -100q-77 -66 -107 -97q-114 -122 -345 -485 q-201 -316 -363 -447q-244 -196 -595 -196q-132 0 -221 35q-128 50 -128 161zM669 1008q0 85 44 148q157 223 520 285q163 28 619 28q114 0 341.5 -1.5t341.5 -1.5q91 0 138 19q33 14 115 75l9 4l12 -14l-4 -10q-165 -177 -546 -177q-141 0 -418 30.5t-415 30.5 q-243 0 -457 -93q-276 -119 -276 -330q0 -83 84 -124q65 -33 156 -33q137 0 310 82q203 96 203 216q0 54 -43 84q-38 27 -94 27q-233 0 -456 -200q-31 -35 -99 -98l-9 -2l-7 8l3 11q51 104 249 207q190 98 313 98q64 0 111 -29q56 -35 56 -96q0 -140 -206 -244 q-175 -90 -331 -90q-103 0 -176 42q-88 51 -88 148z" />
<glyph unicode="U" horiz-adv-x="1548" d="M156 996q0 209 276 344q228 111 460 111q125 0 206 -43q103 -55 103 -170q0 -160 -242 -440q-114 -132 -450 -458q-243 -234 -243 -283q0 -13 27 -23q21 -9 37 -9q208 0 547 272q250 201 576 555l396 446h113q-288 -324 -576 -647q-498 -566 -498 -603q0 -25 46 -25 q100 0 253 108q165 116 182 120l14 -12q-6 -46 -203 -147q-192 -97 -253 -97q-78 0 -78 73q0 67 63 162q21 32 109 144q-134 -124 -317 -236q-229 -141 -355 -141q-125 0 -125 82q0 121 244 375q226 223 452 447q243 253 243 373q0 81 -104 121q-75 29 -172 29 q-218 0 -437 -104q-266 -127 -266 -322q0 -126 185 -126q162 0 376 128q182 110 315 254l10 5l12 -13l-2 -10q-74 -137 -310 -268q-230 -127 -391 -127q-87 0 -148 33q-75 42 -75 122z" />
<glyph unicode="V" horiz-adv-x="1086" d="M159 1121q0 142 163 235q139 79 292 79q109 0 189 -49q94 -57 94 -159q0 -58 75 -58q129 0 285 131q77 67 153 135l10 -12q-6 -18 -107 -120q-117 -118 -129 -132q-64 -78 -159 -225q-107 -167 -154 -229q-98 -131 -298 -352q-212 -234 -319 -323q285 102 677 473 q318 307 635 614q353 305 606 305q74 0 130 -26q72 -35 72 -101q0 -35 -21.5 -60.5t-55.5 -25.5q-61 0 -61 64q0 58 65 78q-41 40 -128 40q-236 0 -552 -260q-107 -88 -459 -444q-260 -264 -387 -371q-224 -189 -451 -289q-13 -6 -124 -50h-3q-18 0 -18 12l4 12 q33 33 100 99q76 77 171 209q256 354 327 446q169 219 364 424q-90 -53 -201 -53q-95 0 -119 42q-15 27 -15 127q0 53 -74 81q-54 21 -118 21q-146 0 -276 -71q-155 -84 -155 -217q0 -85 70 -129q58 -37 147 -37q188 0 378 177q19 2 19 -11l-1 -9q-47 -68 -180 -127 q-127 -57 -216 -57q-100 0 -167 45q-78 51 -78 148z" />
<glyph unicode="W" horiz-adv-x="1583" d="M226 1121q0 142 163 236q135 78 278 78h14l20 -1q185 -5 243 -132q5 -28 19 -87q12 -46 75 -46q129 0 284 129q77 69 155 137l9 -11q-8 -20 -107 -121q-117 -120 -127 -132q-66 -78 -161 -225q-109 -169 -155 -229q-62 -83 -384 -435q-55 -63 -111 -126 q-66 -73 -122 -115q242 121 464 319q99 87 399 396q95 97 396 385q343 328 366 332l11 -13l-4 -9q-129 -138 -278 -353q-228 -329 -254 -364q-55 -73 -385 -437l-108 -128q-65 -74 -124 -110q260 94 632 466q307 310 615 621q350 310 619 310q75 0 130 -26q71 -34 71 -101 q0 -87 -75 -87q-63 0 -63 64q0 60 68 79q-43 40 -130 40q-237 0 -552 -260q-112 -92 -457 -444q-181 -186 -363 -371q-211 -196 -426 -294q-110 -49 -124 -49q-19 0 -19 11l2 13q35 33 103.5 101.5t168.5 206.5q369 508 619 804q-124 -112 -387 -383q-258 -266 -400 -392 q-229 -204 -430 -311q-14 -8 -137 -68h-3q-17 0 -17 12l3 12q35 34 103 102q70 72 166 206q231 321 329 447q171 220 364 423q-93 -54 -202 -54q-95 0 -119 43q-14 25 -14 126q0 54 -73 82q-54 21 -119 21q-146 0 -276 -71q-155 -84 -155 -217q0 -86 70 -130q58 -36 147 -36 q183 0 379 177q18 2 18 -11l-1 -9q-50 -68 -182 -127q-126 -56 -215 -56q-99 0 -166 45q-78 52 -78 147z" />
<glyph unicode="X" horiz-adv-x="1741" d="M178 126q0 223 499 416q295 114 696 196q141 149 203 235q112 158 112 278q0 168 -273 168q-207 0 -411 -95q-248 -118 -248 -300q0 -76 68 -119q58 -36 137 -36q184 0 400 171q100 88 201 176l13 -13l-4 -10q-158 -159 -274 -236q-173 -115 -334 -115q-93 0 -159 44 q-77 50 -77 139q0 191 256 316q212 103 426 103q332 0 332 -237q0 -105 -61 -220q177 168 367 291q257 167 421 167q148 0 148 -95q0 -205 -443 -397q-270 -116 -628 -202q-108 -101 -245 -307q-158 -237 -158 -343q0 -31 26 -52q23 -21 55 -21q84 0 215.5 118t145.5 119 l7 -11l-3 -12q-62 -75 -168 -151q-124 -89 -198 -89q-62 0 -108 49t-46 111q0 76 73 220q-170 -143 -373 -248q-247 -130 -419 -130q-67 0 -113 27q-58 32 -58 95zM205 128q0 -49 51 -75q41 -21 95 -21q205 0 544 246q304 222 446 425q-948 -198 -1115 -506q-21 -39 -21 -69 zM1564 780q355 94 596 197q431 185 431 366q0 76 -125 76q-323 0 -902 -639z" />
<glyph unicode="Y" horiz-adv-x="1406" d="M201 176q0 52 29 87.5t79 35.5q58 0 58 -48q0 -26 -18.5 -46t-43.5 -20q-29 0 -55 33q-12 -26 -12 -55q0 -66 89 -98q63 -23 145 -23q213 0 420 196q78 74 310 369q-291 -253 -465 -253q-143 0 -143 104q0 127 159 296q147 141 295 283q159 159 159 262q0 65 -95 103 q-74 31 -150 31q-195 0 -411 -116q-250 -134 -250 -311q0 -115 162 -115q231 0 545 288q34 34 77 71l12 -12l-4 -10q-358 -364 -629 -364q-78 0 -129 32q-61 38 -61 113q0 192 259 330q221 118 433 118q95 0 173 -39q97 -48 97 -135q0 -155 -150 -333q-9 -10 -281 -281 q-151 -151 -151 -238q0 -50 87 -50q117 0 313 140q153 110 269 235l491 529h139l-738 -824q-183 -204 -328 -303q-206 -140 -415 -140q-102 0 -173 29q-98 42 -98 129z" />
<glyph unicode="Z" horiz-adv-x="1694" d="M172 33q0 52 189 144q77 32 223 109q67 43 253 225l254 254q-47 12 -70 12q-59 0 -117 -38q-62 -42 -64 -42l-11 13l5 11q134 116 279 116q25 0 54 -2q161 144 315 264q-232 8 -232 88q0 25 26 67.5t26 72.5q0 75 -167 75q-161 0 -335 -72q-216 -88 -216 -225 q0 -69 67 -114q60 -41 131 -41q129 0 294 102l156 104l8 -9l-4 -11q-63 -74 -197 -143q-139 -73 -231 -73q-97 0 -167 44q-83 51 -83 144q0 145 224 242q182 78 352 78q93 0 169 -33q99 -42 99 -123q0 -20 -11.5 -57t-11.5 -56q0 -27 131 -34q398 314 533 314q41 0 41 -41 q0 -102 -228 -199q-152 -65 -320 -100l-276 -295q41 -30 80 -30q52 0 102 36q54 38 56 38l10 -8l-2 -12q-26 -44 -98 -76q-67 -29 -123 -29q-41 0 -88 11q-101 -103 -257 -218q-137 -97 -275 -195q239 122 440 122q162 0 162 -118q0 -66 -58 -126q-25 -26 -108 -86 q-58 -42 -58 -65q0 -16 23 -16q90 0 259 100q157 92 157 98q0 1 -1 1l13 -15l-6 -11q-74 -63 -201 -128q-144 -75 -219 -75q-91 0 -91 95q0 76 112 161.5t112 118.5q0 38 -105 38q-162 0 -377 -104q-122 -58 -331 -192q-161 -104 -194 -104q-22 0 -22 18zM1571 1132 q220 51 341 124q150 91 150 142q0 17 -22 17q-67 0 -241 -115q-134 -87 -228 -168z" />
<glyph unicode="[" horiz-adv-x="444" d="M-113 -258v1512h296v-42l-209 1v-1429h209v-42h-296z" />
<glyph unicode="\" horiz-adv-x="1343" d="M-112 1163l9 7l12 -3q40 -35 95 -96q79 -89 91 -101q158 -160 468 -487q25 -28 386 -461q41 -46 83 -92q64 -74 65 -90l-9 -8l-12 4q-110 97 -636 682q-531 591 -552 645z" />
<glyph unicode="]" horiz-adv-x="444" d="M-178 -216h208v1429h-208v41h295v-1512h-295v42z" />
<glyph unicode="^" horiz-adv-x="396" d="M72 483v6q126 89 237 221h15q24 -140 87 -225l-13 -11q-58 43 -100 142q-129 -106 -226 -133z" />
<glyph unicode="_" horiz-adv-x="910" d="M-24 -208h954v-32h-954v32z" />
<glyph unicode="`" horiz-adv-x="276" d="M0 687q0 40 39 40q31 0 47 -56q22 -79 25 -83q31 -48 98 -94l-7 -9q-63 29 -125 83q-77 67 -77 119z" />
<glyph unicode="a" horiz-adv-x="703" d="M-256 101q0 116 153 221q141 97 263 97q101 0 101 -77q0 -18 -7 -41q25 25 105 118h115l-176 -192q-142 -159 -144 -182l16 -13h2q52 0 178 90q128 92 132 94l12 -15q-1 -34 -152 -119q-147 -84 -191 -84q-60 0 -60 64q0 27 9 52q-148 -117 -250 -117q-106 0 -106 104z M-201 60q0 -36 43 -36q90 0 237 112q152 117 152 203q0 51 -58 51q-72 0 -223 -130t-151 -200z" />
<glyph unicode="b" horiz-adv-x="625" d="M-222 208l3 10q32 38 133.5 99t137.5 102l198 238q188 219 331 348q198 177 305 177q28 0 49 -22.5t21 -51.5q0 -164 -487 -457q-76 -38 -206 -124q-89 -81 -204 -217q-96 -115 -192 -229q-14 -17 -14 -28q0 -17 36 -17q58 0 174 61q104 55 159 104l-5 20q0 52 59 124 q61 76 111 76q26 0 26 -26q0 -80 -146 -198q14 -8 29 -8q22 0 59.5 14.5t55.5 15.5l9 -15l-5 -10q-65 -32 -104 -32q-43 0 -70 17q-72 -68 -178 -121q-118 -60 -203 -60q-81 0 -81 77q0 48 56 114q45 49 91 97q-56 -44 -141 -89zM287 570q306 191 374 239q269 193 269 299 q0 48 -50 48q-114 0 -323 -240q-61 -69 -270 -346z" />
<glyph unicode="c" horiz-adv-x="466" d="M-256 101q0 109 138 215q130 101 242 101q93 0 93 -62q0 -30 -22 -52t-51 -22q-44 0 -44 38q0 50 56 50q14 0 31 -11q-19 31 -51 31q-78 0 -207.5 -125.5t-129.5 -203.5q0 -34 57 -34q90 0 240 95q155 97 156 97l12 -17q-1 -40 -189 -124q-182 -80 -239 -80 q-92 0 -92 104z" />
<glyph unicode="d" horiz-adv-x="703" d="M-261 101q0 114 153 220q140 98 259 98q89 0 101 -63l587 677h134q-228 -260 -456 -521q-381 -438 -390 -467l18 -11h4q68 0 197 88q138 93 146 94l5 -10q-3 -38 -166 -124q-158 -84 -207 -84q-57 0 -57 46q0 25 16 59q-145 -107 -247 -107q-97 0 -97 105zM-206 60 q0 -36 43 -36q91 0 237 112q153 117 153 203q0 51 -59 51q-72 0 -223 -130t-151 -200z" />
<glyph unicode="e" horiz-adv-x="453" d="M-262 98q0 108 137 218q131 105 241 105q63 0 63 -52q0 -60 -96 -106q-89 -38 -178 -77q-96 -50 -96 -122q0 -36 45 -36q95 0 239.5 96t146.5 96l10 -16l-4 -10q-273 -197 -377 -197q-131 0 -131 101zM-76 234q225 74 225 134q0 23 -22 23q-77 0 -203 -157z" />
<glyph unicode="f" horiz-adv-x="440" d="M-708 -513q157 185 314 371q173 214 272 398q-40 -30 -102 -67l-12 14l6 11q82 56 130 85q32 123 93 123q14 0 24.5 -14.5t8.5 -27.5q39 26 111 85q187 200 375 400q281 283 413 283q27 0 49 -18.5t22 -46.5q0 -128 -288 -321q-46 -30 -410 -238q-33 -18 -305 -354 q27 -18 53 -18q49 0 106 31q61 34 70 35l9 -13l-5 -11q-103 -69 -185 -69q-34 0 -71 21l-565 -659h-113zM-141 155l54 63l-9 27zM-65 259l4 -16l81 89q-27 -13 -53 -27q-32 -20 -32 -46zM330 570q154 68 368 217q269 187 269 281q0 52 -47 52q-111 0 -319 -224 q-77 -82 -271 -326z" />
<glyph unicode="g" horiz-adv-x="657" d="M-653 -435q0 117 224 229q71 36 329 132l113 135q-104 -65 -181 -65q-97 0 -97 105q0 115 154 220q141 98 261 98q101 0 101 -81q0 -7 -1 -15l93 96h115l-375 -428q156 72 352 225q16 3 16 -10l-1 -9q-15 -22 -145 -108q-121 -79 -164 -101q-35 -13 -100 -49 q-144 -135 -287 -271q-196 -175 -330 -175q-77 0 -77 72zM-624 -435q0 -47 47 -47q119 0 252 136q11 12 192 235q-217 -82 -292 -120q-199 -103 -199 -204zM-210 60q0 -36 43 -36q90 0 237 112q153 117 153 203q0 51 -59 51q-72 0 -223 -130t-151 -200z" />
<glyph unicode="h" horiz-adv-x="762" d="M-309 0l281 310q-77 -56 -184 -115l-8 12l3 11q35 39 134 98.5t137 102.5q101 121 201 241q187 218 330 346q197 176 303 176q29 0 49.5 -22.5t20.5 -51.5q0 -104 -148 -227q-95 -79 -302 -201q-202 -118 -243 -153q-54 -48 -124 -134q-57 -71 -115 -142q207 168 311 168 q56 0 56 -65q0 -74 -101 -183t-102 -126l18 -11h4q66 0 198 90q136 92 145 93l6 -10q-3 -38 -166 -125q-159 -84 -208 -84q-62 0 -62 70q0 64 106.5 182t107.5 129l-11 14h-4q-158 0 -509 -393h-124zM289 570q307 191 374 239q269 193 269 299q0 48 -50 48q-114 0 -323 -240 q-61 -69 -270 -346z" />
<glyph unicode="i" horiz-adv-x="420" d="M-229 206l7 12q167 111 272 201h113q-87 -96 -174 -193q-142 -160 -144 -181l17 -11h4q64 0 196 89q141 95 145 95l9 -14q-2 -36 -167 -122q-159 -84 -208 -84q-61 0 -61 65q0 50 39 107q3 4 72 90q-42 -31 -109 -67zM250 647q19 42 61 65q31 -15 63 -61q-14 -35 -65 -68 q-37 25 -59 64z" />
<glyph unicode="j" horiz-adv-x="374" d="M-907 -436q0 116 206 229q94 52 310 133l287 334q-41 -30 -109 -68l-11 14l7 12q158 103 271 201h113l-352 -399q73 28 174 90q83 53 166 107l6 -10l-2 -10q-22 -24 -143 -99q-112 -69 -157 -90q-30 -11 -85 -41q-45 -34 -182 -172q-140 -141 -219 -202 q-125 -98 -211 -98q-27 0 -48 21t-21 48zM-880 -435q0 -44 40 -44q99 0 233 142q29 31 183 226q-456 -175 -456 -324zM254 647q20 42 61 65q31 -15 63 -61q-14 -35 -65 -68q-33 20 -59 64z" />
<glyph unicode="k" horiz-adv-x="725" d="M-278 -2l308 360q-114 -79 -249 -163l-7 14l4 12q102 64 203 129q119 80 184 152q110 127 220 253q161 180 283 276q164 130 280 130q28 0 49.5 -22t21.5 -51q0 -111 -195 -262q-129 -100 -298 -188q-79 -33 -215 -112q-53 -42 -120 -125q-56 -68 -111 -137 q93 0 210 88.5t178 88.5q71 0 71 -51q0 -32 -31 -32q-21 0 -26 20q-5 17 5 35l-20 5q-21 0 -123 -74q-112 -82 -164 -99q49 -28 49 -71q0 -44 -70 -137l13 -2q66 0 196.5 91t140.5 91l6 -10q-1 -37 -166 -124q-160 -85 -209 -85q-56 0 -56 56q0 36 36 91t36 64q0 21 -79 21 l-31 -1l-202 -233zM335 570q658 338 658 518q0 46 -51 46q-134 0 -337 -222q-61 -67 -270 -342z" />
<glyph unicode="l" horiz-adv-x="420" d="M-223 207l6 11q71 46 143 92q82 56 128 109l200 240q188 219 330 347q198 176 304 176q29 0 49.5 -22.5t20.5 -51.5q0 -104 -149 -228q-96 -80 -304 -202q-201 -118 -240 -151q-88 -78 -204 -217q-96 -114 -191 -229q-10 -11 -22 -36l17 -11h5q74 0 199 86q141 97 144 97 l7 -10q-1 -47 -162 -130q-153 -79 -211 -79q-63 0 -63 65q0 50 39 107q5 6 73 90q-43 -30 -108 -66zM289 570q307 191 374 239q269 193 269 299q0 48 -50 48q-114 0 -323 -240q-61 -69 -270 -346z" />
<glyph unicode="m" horiz-adv-x="1208" d="M-225 206q2 37 154 126q148 87 195 87q21 0 38 -17t17 -38q0 -42 -40 -113q212 168 315 168q54 0 54 -65q0 -50 -34 -103q207 168 312 168q57 0 57 -65q0 -74 -101.5 -183t-101.5 -126l17 -11h4q68 0 199 88q139 94 144 95l6 -10q0 -44 -162 -128q-155 -81 -211 -81 q-63 0 -63 70q0 61 91 170q70 75 139 151l-18 5q-170 0 -521 -394h-117l323 389l-19 6q-165 0 -524 -395h-113q151 179 310 382l-14 9h-1q-49 0 -180 -94q-139 -100 -146 -102z" />
<glyph unicode="n" horiz-adv-x="875" d="M-224 206l5 10q75 66 165 124q122 78 181 78q50 0 50 -53q0 -48 -40 -114q211 168 312 168q55 0 55 -65q0 -78 -101 -184.5t-101 -122.5q0 -13 18 -13q72 0 207.5 91t139.5 92l6 -10q0 -42 -163 -127q-157 -82 -210 -82q-62 0 -62 70q0 61 90 170q70 75 139 151l-17 5 q-167 0 -524 -394h-113q152 179 309 382l-11 9h-1q-62 0 -323 -197z" />
<glyph unicode="o" horiz-adv-x="525" d="M-261 101q0 115 153 221q142 97 262 97q38 0 67 -18q35 -22 35 -58q0 -61 -76 -151h3q27 0 67 15q42 16 63 18l10 -13l-6 -11q-59 -39 -165 -39q-182 -166 -303 -166q-110 0 -110 105zM-206 60q0 -36 43 -36q91 0 237 112q153 117 153 203q0 51 -59 51q-72 0 -223 -130 t-151 -200z" />
<glyph unicode="p" horiz-adv-x="762" d="M-778 -566l706 854q-59 -44 -143 -94l-13 12l6 10q125 82 272 226q124 126 248 253h69l-350 -437q199 161 309 161q59 0 59 -65q0 -78 -102 -185.5t-102 -122.5q0 -12 18 -12q77 0 207 89q136 94 139 94l7 -10q-1 -41 -164 -127q-157 -82 -210 -82q-62 0 -62 70 q0 61 91 170q69 75 138 151l-17 5q-65 0 -205 -94q-128 -86 -182 -149l-602 -717h-117z" />
<glyph unicode="q" horiz-adv-x="710" d="M-476 -522l476 572q-90 -52 -160 -52q-96 0 -96 105q0 114 152 220q141 98 259 98q82 0 99 -56l46 54h135l-515 -603q72 62 298 222q251 177 284 179l7 -10l-3 -10q-35 -37 -105 -79q-57 -33 -113 -67q-215 -143 -346 -258q-136 -121 -298 -315h-120zM-201 63 q0 -37 43 -37q90 0 237 112q152 117 152 203q0 52 -58 52q-72 0 -223 -130.5t-151 -199.5z" />
<glyph unicode="r" horiz-adv-x="470" d="M-228 207l4 9q126 105 185 166q-37 12 -37 47q0 60 62 60q40 0 40 -41q0 -24 -19 -39q60 0 108 15l39 -79l-142 -152q-114 -125 -114 -144q0 -14 20 -14q108 0 338 183l12 -16q-1 -33 -167 -120q-161 -84 -208 -84q-63 0 -63 75q0 60 99 171l136 138q-26 -4 -50 -4h-15 q-183 -183 -217 -185z" />
<glyph unicode="s" horiz-adv-x="485" d="M-265 69q0 79 66 79q43 0 43 -37q0 -61 -70 -61h-4q2 -28 45 -28q172 0 296 391q-34 -24 -320 -221l-14 18q4 8 219 161t234 158l15 -17l-93 -75q-3 -17 -3 -44q0 -18 5.5 -53t5.5 -53q0 -71 -36 -130q39 7 137 61l11 -13q0 -25 -74 -53q-64 -25 -98 -27 q-149 -132 -269 -132q-96 0 -96 76z" />
<glyph unicode="t" horiz-adv-x="451" d="M-225 206l6 12q284 192 412 335h-52l-17 13q7 15 70 15h23l174 195h117l-176 -195h126l13 -14q-2 -15 -107 -15q-23 0 -51 1l-240 -266q-198 -223 -201 -244l15 -9h7q116 0 343 184l9 -14q-1 -42 -163 -126q-155 -80 -210 -80q-62 0 -62 63q0 71 69 151l122 122 q-98 -68 -218 -142z" />
<glyph unicode="u" horiz-adv-x="742" d="M-228 208q2 9 116 89q122 88 151 122h133q-88 -97 -176 -195q-144 -162 -146 -182l14 -9h5q143 0 487 386h135l-176 -194q-145 -162 -145 -181q0 -14 21 -14q122 0 340 189l7 -13l-3 -9q-215 -199 -366 -199q-62 0 -62 59q0 44 39 111q-215 -174 -312 -174q-56 0 -56 65 q0 53 129 212q-51 -37 -123 -78z" />
<glyph unicode="v" horiz-adv-x="644" d="M-229 201q1 36 122.5 127t163.5 91q57 0 57 -72q0 -62 -112 -170.5t-112 -128.5q0 -18 38 -18q114 0 309 171l-5 20q0 52 59 124q61 76 111 76q26 0 26 -26q0 -80 -146 -198q15 -13 34 -13q27 0 61 17t49 19l10 -15l-6 -11q-59 -40 -116 -40q-30 0 -55 23 q-215 -176 -325 -176q-95 0 -95 86q0 62 110 174t111 122l-14 10h-2q-45 0 -150 -100q-107 -102 -110 -102z" />
<glyph unicode="w" horiz-adv-x="986" d="M-227 201q1 36 123 127t163 91q57 0 57 -72q0 -56 -106 -172t-106 -133q0 -14 22 -14q134 0 482 391h133l-172 -190q-140 -159 -140 -179t42 -20q57 0 159 64q80 49 144 107l-5 20q0 52 59 124q61 76 111 76q26 0 26 -26q0 -78 -148 -198q16 -13 37 -13q62 0 129 44 l10 -14l-6 -13q-64 -46 -134 -46q-32 0 -58 22q-211 -176 -323 -176q-36 0 -67 18q-36 21 -36 55q0 27 22 81l-128 -98q-85 -57 -144 -57q-31 0 -54.5 26.5t-23.5 58.5q0 64 110 176.5t111 121.5l-14 10h-2q-42 0 -148 -100q-108 -102 -112 -102z" />
<glyph unicode="x" horiz-adv-x="640" d="M-315 61q0 83 72 83q41 0 41 -46q0 -53 -56 -53q-12 0 -27 3q16 -18 40 -18q71 0 223.5 136t152.5 204q0 17 -25 17q-102 0 -318 -195l-14 14q0 41 147 127q142 83 192 83q30 0 52 -24t22 -53q97 69 154 69q78 0 78 -58q0 -72 -65 -72q-40 0 -40 40q0 53 54 53q7 0 14 -2 q-14 14 -31 14q-57 0 -198 -139.5t-141 -195.5q0 -26 69 -26q68 0 183 72q88 56 163 124l12 -15q-5 -51 -155 -132q-143 -78 -205 -78q-116 0 -116 97q-143 -90 -199 -90q-79 0 -79 61z" />
<glyph unicode="y" horiz-adv-x="786" d="M-516 -434q0 118 222 229q59 30 329 131l182 214q-193 -140 -296 -140q-33 0 -56.5 26t-23.5 59q0 63 108 174q112 114 113 124l-14 10h-1q-43 0 -146 -98q-108 -103 -115 -104l-13 10q3 37 123.5 127.5t162.5 90.5q57 0 57 -72q0 -56 -106 -171.5t-106 -134.5 q0 -13 22 -13q166 0 554 391h113l-376 -428q124 43 273 160q24 24 79 65l11 1l7 -10l-3 -10q-46 -67 -196 -146q-209 -110 -212 -112q-50 -34 -178 -163q-135 -135 -211 -191q-126 -92 -227 -92q-76 0 -76 73zM-489 -436q0 -46 47 -46q119 0 252 136q8 9 192 235 q-229 -88 -292 -120q-199 -102 -199 -205z" />
<glyph unicode="z" horiz-adv-x="625" d="M-662 -439q0 96 279 252q188 92 376 185q29 53 29 72q0 23 -43 23q-41 0 -111 -30q-65 -28 -103 -56h-80l413 286l-33 -3h-7q-31 0 -80 16q-85 -56 -189 -115l-13 12q3 8 183 123l-6 23q0 69 62 69q50 0 50 -47q0 -36 -39 -50q13 -7 44 -7q72 0 148.5 60.5t127.5 60.5 q22 0 22 -22q0 -42 -86 -78q-60 -25 -126 -36l-304 -209q138 45 184 45q72 0 86 -78l288 162l12 -13q-12 -25 -138 -94l-162 -86q-61 -201 -277 -361.5t-424 -160.5q-83 0 -83 57zM-632 -437q0 -38 53 -38q136 0 314 159q132 117 243 277q-610 -276 -610 -398z" />
<glyph unicode="{" horiz-adv-x="821" d="M-130 417v46q176 29 228 79q63 60 63 234q0 262 35 338q63 133 296 128l40 -1v-35q-183 -6 -245 -87q-46 -60 -46 -211q0 -21 1 -67t1 -71q0 -168 -75 -234q-47 -41 -227 -95q157 -33 223 -95q58 -54 70 -159q4 -35 4 -244q0 -148 74 -210q67 -56 218 -56v-40 q-189 18 -263 59t-92 139q-12 60 -12 271q0 166 -66 230q-58 55 -227 81z" />
<glyph unicode="|" horiz-adv-x="170" d="M-143 -341v1569h30v-1569h-30z" />
<glyph unicode="}" horiz-adv-x="821" d="M-126 1206v35l39 1q224 5 290 -117q42 -79 42 -326q0 -188 56 -249q51 -56 236 -87v-46q-156 -24 -219 -74q-57 -45 -68 -140q-3 -28 -3 -231q0 -198 -92 -266q-67 -49 -279 -69v40q153 0 220 55q56 47 68 151q3 31 3 217q0 168 69 241q62 65 229 100q-165 50 -220 90 q-60 43 -72 128q-5 38 -5 245q0 157 -68 226.5t-226 75.5z" />
<glyph unicode="~" horiz-adv-x="359" d="M-17 463q70 136 139 136q24 0 69 -26t69 -26q44 0 85 67h20q-52 -127 -127 -127q-28 0 -73.5 20t-65.5 20q-57 0 -97 -64h-19z" />
<glyph unicode="&#xa1;" horiz-adv-x="322" d="M-26 419l245 293l-221 -124l-9 7l2 6q121 62 198 108q42 33 130 84l8 2l4 -6q-3 -10 -303 -370h-54z" />
<glyph unicode="&#xa2;" horiz-adv-x="438" d="M-78 121q1 4 98 130q-75 26 -75 94q0 129 145 239q139 107 269 95q57 77 133 155l9 -10q-6 -23 -112 -153q54 -32 54 -76q0 -29 -16 -52q-17 -27 -44 -27q-35 0 -35 38q0 54 60 53q-14 30 -36 40l-292 -365q46 4 172 66l11 -15l-4 -10q-126 -71 -205 -74 q-51 -69 -120 -141zM0 312q0 -31 41 -32l300 373l-9 2q-61 0 -196.5 -141t-135.5 -202z" />
<glyph unicode="&#xa3;" horiz-adv-x="1265" d="M-135 92q0 59 121 59q77 0 212 -53q86 13 197 125q-5 1 -47 16q-29 10 -48 10q-12 0 -35 -6t-35 -6l-9 11q23 45 136 45q39 0 99 -9q26 21 46 61q-27 -7 -67 -7q-95 0 -95 17q0 12 19 15q13 1 38 -1l29 -4q67 0 95 11q110 144 229 248q167 146 289 146q98 0 98 -68 q0 -161 -498 -335q-39 -52 -89 -100q35 -14 60 -14q24 0 63.5 15t57.5 15l8 -10q-12 -34 -70 -57q-50 -21 -93 -21q-33 0 -81 8q-68 -47 -252 -120q93 -35 160 -35t168 42q51 22 102 43l9 -16l-2 -6q-41 -39 -131 -67q-81 -24 -147 -24q-73 0 -206 48q-116 -33 -206 -33 q-125 0 -125 57zM-104 92q0 -29 101 -29q72 0 157 22q-148 38 -185 38q-73 0 -73 -31zM674 409q131 39 258 110q178 99 178 185q0 40 -56 40q-145 0 -380 -335z" />
<glyph unicode="&#xa4;" horiz-adv-x="322" d="M-121 435l4 6q88 52 219 142l70 64q-70 -41 -100 -41q-37 0 -37 38q0 57 78 104q69 42 131 42q51 0 51 -46q0 -61 -107 -142q-6 -4 -162 -104q52 2 52 -32q0 -16 -11 -31q27 0 80 39.5t62 39.5l4 -6q-1 -16 -66.5 -52.5t-86.5 -36.5q-35 0 -35 32q0 17 10 34 q-39 -6 -153 -57zM59 634l15 -14q62 -2 177 118l3 -6l17 27l-17 12q-36 1 -114 -50q-81 -54 -81 -87z" />
<glyph unicode="&#xa7;" horiz-adv-x="322" d="M-38 475q0 81 132 196t214 115q47 0 47 -43q0 -37 -32 -37q-27 0 -27 28q0 26 26 37q-58 0 -122 -58q-49 -50 -98 -101q56 28 91 28q44 0 44 -48q0 -59 -81 -117q-76 -56 -137 -56q-57 0 -57 56zM-9 456l2 -13l19 -8q39 -2 115.5 68.5t76.5 108.5q0 14 -18 14 q-51 0 -122 -59q-73 -62 -73 -111z" />
<glyph unicode="&#xa8;" horiz-adv-x="313" d="M35 527q0 20 15.5 37t36.5 17q50 0 50 -54q0 -51 -50 -51q-20 0 -36 15.5t-16 35.5zM243 527q0 54 52 54q50 0 50 -55q0 -50 -50 -50q-52 0 -52 51z" />
<glyph unicode="&#xaa;" horiz-adv-x="1628" d="M942 155q0 535 402 993q366 417 902 604q168 59 229 59q28 0 28 -20q0 -22 -133 -63q-84 -24 -167 -48q-272 -101 -553 -373q-277 -267 -453 -590q-188 -346 -188 -631q0 -144 34 -253q0 -1 17 -45q11 -28 11 -46q0 -24 -27 -24l-12 5q-90 201 -90 432z" />
<glyph unicode="&#xab;" horiz-adv-x="562" d="M-37 370q188 202 399 415l6 -4q-5 -21 -192 -216t-209 -200zM-5 637q0 62 75 111q68 45 133 45q53 0 53 -33q0 -55 -84 -115q-79 -56 -136 -56q-41 0 -41 48zM20 617l18 -12q46 -2 123 50q81 55 81 99q0 26 -28 26q-40 0 -116 -61q-79 -63 -78 -102zM169 465q0 61 75 112 q69 46 132 46q56 0 56 -36q0 -54 -85 -113q-79 -55 -136 -55q-42 0 -42 46zM194 448q0 -13 18 -13q52 0 126 50q80 55 79 104q-7 21 -28 21q-37 0 -116 -63t-79 -99z" />
<glyph unicode="&#xac;" horiz-adv-x="322" d="M-67 425q-1 8 14 9q4 0 18 -1l270 321h-29v13h118l6 -7q1 -6 -14 -7q-5 0 -18 1l-268 -321h29v-14h-120z" />
<glyph unicode="&#xad;" horiz-adv-x="431" d="M-89 229l24 60q15 27 49 27q8 0 116 -4q70 -3 115 3l-24 -58q-17 -29 -48 -29q-8 0 -116 4q-70 3 -116 -3z" />
<glyph unicode="&#xae;" horiz-adv-x="322" d="M-81 529q0 55 44 55l13 -5l8 -18q1 -14 -18.5 -26t-19.5 -17q0 -12 50 -57l139 173q-18 43 -18 62q0 54 57 88q50 31 106 27q24 35 61 71l6 -9q-16 -24 -52 -69q60 -40 60 -71q0 -34 -25 -34q-20 0 -20 22q0 6 5 17t5 17q0 19 -33 36l-102 -122q19 -51 19 -75 q0 -69 -57 -113q-52 -41 -123 -41q-10 0 -20 1q-41 -64 -54 -65l-7 9q15 20 44 63q-68 49 -68 81zM15 457l19 -1q46 -3 83.5 27t37.5 76q0 20 -14 55zM166 720q0 -13 10 -34l91 109l-9 1q-31 2 -61.5 -21.5t-30.5 -54.5z" />
<glyph unicode="&#xb0;" horiz-adv-x="322" d="M-26 477q0 55 64 95q29 19 112 51q-10 27 -10 44q0 48 51 87t101 39q20 0 37.5 -15.5t17.5 -35.5q0 -61 -132 -113q11 -30 11 -51q0 -58 -57.5 -108t-115.5 -50q-79 0 -79 57zM-11 478q0 -43 65 -43q45 0 86 32.5t41 76.5q0 23 -20 63q-58 -13 -108 -43q-64 -39 -64 -86z M184 695q0 -16 22 -53q126 44 126 99q0 37 -51 37q-33 0 -65 -25.5t-32 -57.5z" />
<glyph unicode="&#xb1;" horiz-adv-x="322" d="M-115 429q0 4 43 4q58 0 132 66q22 21 105 113q-78 -56 -123 -56q-38 0 -38 47q0 61 82 117q76 51 140 51q50 0 50 -52q0 -94 -132 -199q-128 -101 -224 -101zM32 581l15 -12q64 -3 165 108l5 -6q34 36 34 66q0 21 -22 21q-39 0 -118.5 -70t-78.5 -107z" />
<glyph unicode="&#xb2;" d="M-241 27l9 15q38 20 116 61q210 113 461 349q-130 -82 -198 -82q-30 0 -51.5 23.5t-21.5 54.5q0 114 154 208q137 83 260 83q103 0 103 -92q0 -121 -213 -281q-41 -31 -322 -207q101 2 101 -66q0 -33 -22 -65q55 1 164 81t122 80l8 -10q-1 -34 -134 -108 q-129 -72 -172 -72q-26 0 -47.5 17.5t-21.5 43.5q0 31 20 67q-62 -8 -181 -62q-115 -51 -124 -51zM119 428q0 -28 41 -28q66 0 141 56q45 33 118 109q63 65 83 74l9 -12q33 30 33 53q0 22 -32 22q-76 0 -231 -100q-162 -106 -162 -174z" />
<glyph unicode="&#xb3;" d="M-245 109q0 33 21.5 58.5t54.5 25.5q43 0 43 -48q0 -60 -57 -60q-10 0 -26 9q8 -26 36.5 -45.5t56.5 -19.5q105 0 279 121q184 128 184 225q0 33 -32 33q-35 0 -96.5 -28.5t-94.5 -27.5l-9 13l11 15q29 16 109 43q71 24 106 49q42 30 101 91q67 70 79 105q4 12 4 17 q0 31 -34 31q-45 0 -154 -63q-115 -67 -115 -107q0 -17 21 -17q52 0 141 79q46 42 92 83l12 -12q0 -35 -104 -108q-100 -71 -141 -71q-24 0 -43.5 17t-19.5 41q0 78 107 137q93 52 178 52q47 0 82 -25q40 -28 40 -74q0 -82 -90 -140q-26 -17 -160 -75q78 -35 78 -97 q0 -138 -192 -244q-168 -92 -319 -92q-51 0 -97 28q-52 32 -52 81z" />
<glyph unicode="&#xb4;" horiz-adv-x="279" d="M128 485q85 53 120 146q-1 83 56 83q29 0 29 -36q0 -54 -74 -120q-60 -53 -124 -82z" />
<glyph unicode="&#xb7;" horiz-adv-x="594" d="M12 -322q0 19 16 31q7 17 28 16q20 -10 20 -22q-20 -20 -39 -13v-7q0 -28 45 -28q70 0 124 80q50 74 50 147q0 42 -35 42q-45 0 -81 -30q-32 -27 -64 -53v8q38 37 126 171h33l-68 -96q33 19 63 19q78 0 78 -87q0 -85 -73.5 -155t-158.5 -70q-19 0 -41.5 14.5t-22.5 32.5z " />
<glyph unicode="&#x2219;" horiz-adv-x="594" d="M12 -322q0 19 16 31q7 17 28 16q20 -10 20 -22q-20 -20 -39 -13v-7q0 -28 45 -28q70 0 124 80q50 74 50 147q0 42 -35 42q-45 0 -81 -30q-32 -27 -64 -53v8q38 37 126 171h33l-68 -96q33 19 63 19q78 0 78 -87q0 -85 -73.5 -155t-158.5 -70q-19 0 -41.5 14.5t-22.5 32.5z " />
<glyph unicode="&#xb9;" d="M-78 0l489 585q-116 -68 -232 -137q-183 -106 -219 -112l-10 14l7 10q111 57 658 385q4 1 12 4l12 -13q-20 -43 -282 -353q-163 -191 -327 -383h-108z" />
<glyph unicode="&#xba;" horiz-adv-x="1628" d="M-247 -298q0 18 120 56q75 22 150 45q408 148 757 575q466 571 466 1031q0 142 -32 251q-28 92 -28 90q0 24 29 24l10 -4q91 -200 91 -429q0 -533 -404 -994q-370 -423 -902 -605q-164 -57 -229 -57q-28 0 -28 17z" />
<glyph unicode="&#xbb;" horiz-adv-x="322" d="M-211 454q0 31 61 31q39 0 104 -24q43 8 100 61q-4 0 -37 8q-20 5 -41 -3l-9 6q0 17 53 20q32 2 65 0q12 8 21 28q-14 -3 -27 -2l-42 2l-10 5q0 6 52 6q27 0 38 4q143 198 258 198q51 0 51 -34q0 -66 -250 -168q-16 -18 -46 -48q22 -8 36 -8q27 0 59 14l2 -4 q1 -23 -51 -33q-36 -6 -72 -4q-27 -18 -126 -59q49 -16 85 -16q52 0 126 42h4l3 -11q-75 -45 -135 -45q-39 0 -107 26q-56 -20 -101 -20q-64 0 -64 28zM-196 454q27 -11 53 -11q44 0 76 11q-69 20 -87 20q-42 0 -42 -20zM193 616q219 71 219 145q0 20 -32 20 q-59 0 -187 -165z" />
<glyph unicode="&#xbc;" horiz-adv-x="2700" d="M1923 183l6 14q227 193 532 546h127l-591 -522q89 27 260 24l191 214h74l-169 -225q29 0 84 12t81 12h12l12 -20l-4 -11q-49 -31 -207 -30l-154 -197h-113l165 208q-45 5 -80 5q-43 0 -110 -19q-74 -21 -106 -23zM826 176q0 53 29 88t81 35q56 0 56 -48q0 -26 -18 -46 t-44 -20q-29 0 -55 33q-11 -26 -11 -55q0 -66 88 -98q64 -23 146 -23q215 0 421 195q86 81 308 370q-290 -253 -465 -253q-143 0 -143 104q0 127 159 296q148 141 295 283q159 159 159 262q0 65 -95 103q-74 31 -150 31q-195 0 -410 -115q-249 -133 -249 -309 q0 -118 161 -118q135 0 284 89q98 59 219 170q106 97 119 101l14 -13l-5 -10q-361 -364 -631 -364q-77 0 -128 32q-61 37 -61 110q0 193 258 332q222 119 433 119q96 0 173 -39q98 -48 98 -135q0 -155 -151 -333q-9 -10 -280 -281q-151 -151 -151 -238q0 -50 86 -50 q117 0 313 140q154 110 270 235l491 529h139l-739 -824q-183 -204 -328 -303q-206 -140 -415 -140q-101 0 -173 29q-98 42 -98 129zM2053 1586q0 21 15.5 38t36.5 17q50 0 50 -55q0 -52 -50 -52q-20 0 -36 16t-16 36zM2261 1586q0 55 53 55q50 0 50 -55q0 -52 -50 -52 q-53 0 -53 52zM-78 0l489 585q-116 -68 -232 -137q-183 -106 -219 -112l-10 14l7 10q111 57 658 385q4 1 12 4l12 -13q-20 -43 -282 -353q-163 -191 -327 -383h-108z" />
<glyph unicode="&#xbd;" horiz-adv-x="2700" d="M1812 27l9 15q38 20 116 61q210 113 461 349q-130 -82 -198 -82q-30 0 -51.5 23.5t-21.5 54.5q0 114 154 208q137 83 260 83q103 0 103 -92q0 -121 -213 -281q-41 -31 -322 -207q101 2 101 -66q0 -33 -22 -65q55 1 164 81t122 80l8 -10q-1 -34 -134 -108 q-129 -72 -172 -72q-26 0 -47.5 17.5t-21.5 43.5q0 31 20 67q-62 -8 -181 -62q-115 -51 -124 -51zM2172 428q0 -28 41 -28q66 0 141 56q45 33 118 109q63 65 83 74l9 -12q33 30 33 53q0 22 -32 22q-76 0 -231 -100q-162 -106 -162 -174zM826 176q0 53 29 88t81 35 q56 0 56 -48q0 -26 -18 -46t-44 -20q-29 0 -55 33q-11 -26 -11 -55q0 -66 88 -98q64 -23 146 -23q215 0 421 195q86 81 308 370q-290 -253 -465 -253q-143 0 -143 104q0 127 159 296q148 141 295 283q159 159 159 262q0 65 -95 103q-74 31 -150 31q-195 0 -410 -115 q-249 -133 -249 -309q0 -118 161 -118q135 0 284 89q98 59 219 170q106 97 119 101l14 -13l-5 -10q-361 -364 -631 -364q-77 0 -128 32q-61 37 -61 110q0 193 258 332q222 119 433 119q96 0 173 -39q98 -48 98 -135q0 -155 -151 -333q-9 -10 -280 -281q-151 -151 -151 -238 q0 -50 86 -50q117 0 313 140q154 110 270 235l491 529h139l-739 -824q-183 -204 -328 -303q-206 -140 -415 -140q-101 0 -173 29q-98 42 -98 129zM2053 1586q0 21 15.5 38t36.5 17q50 0 50 -55q0 -52 -50 -52q-20 0 -36 16t-16 36zM2261 1586q0 55 53 55q50 0 50 -55 q0 -52 -50 -52q-53 0 -53 52zM-78 0l489 585q-116 -68 -232 -137q-183 -106 -219 -112l-10 14l7 10q111 57 658 385q4 1 12 4l12 -13q-20 -43 -282 -353q-163 -191 -327 -383h-108z" />
<glyph unicode="&#xbe;" horiz-adv-x="2700" d="M1923 183l6 14q227 193 532 546h127l-591 -522q89 27 260 24l191 214h74l-169 -225q29 0 84 12t81 12h12l12 -20l-4 -11q-49 -31 -207 -30l-154 -197h-113l165 208q-45 5 -80 5q-43 0 -110 -19q-74 -21 -106 -23zM826 176q0 53 29 88t81 35q56 0 56 -48q0 -26 -18 -46 t-44 -20q-29 0 -55 33q-11 -26 -11 -55q0 -66 88 -98q64 -23 146 -23q215 0 421 195q86 81 308 370q-290 -253 -465 -253q-143 0 -143 104q0 127 159 296q148 141 295 283q159 159 159 262q0 65 -95 103q-74 31 -150 31q-195 0 -410 -115q-249 -133 -249 -309 q0 -118 161 -118q135 0 284 89q98 59 219 170q106 97 119 101l14 -13l-5 -10q-361 -364 -631 -364q-77 0 -128 32q-61 37 -61 110q0 193 258 332q222 119 433 119q96 0 173 -39q98 -48 98 -135q0 -155 -151 -333q-9 -10 -280 -281q-151 -151 -151 -238q0 -50 86 -50 q117 0 313 140q154 110 270 235l491 529h139l-739 -824q-183 -204 -328 -303q-206 -140 -415 -140q-101 0 -173 29q-98 42 -98 129zM2053 1586q0 21 15.5 38t36.5 17q50 0 50 -55q0 -52 -50 -52q-20 0 -36 16t-16 36zM2261 1586q0 55 53 55q50 0 50 -55q0 -52 -50 -52 q-53 0 -53 52zM-245 109q0 33 21.5 58.5t54.5 25.5q43 0 43 -48q0 -60 -57 -60q-10 0 -26 9q8 -26 36.5 -45.5t56.5 -19.5q105 0 279 121q184 128 184 225q0 33 -32 33q-35 0 -96.5 -28.5t-94.5 -27.5l-9 13l11 15q29 16 109 43q71 24 106 49q42 30 101 91q67 70 79 105 q4 12 4 17q0 31 -34 31q-45 0 -154 -63q-115 -67 -115 -107q0 -17 21 -17q52 0 141 79q46 42 92 83l12 -12q0 -35 -104 -108q-100 -71 -141 -71q-24 0 -43.5 17t-19.5 41q0 78 107 137q93 52 178 52q47 0 82 -25q40 -28 40 -74q0 -82 -90 -140q-26 -17 -160 -75 q78 -35 78 -97q0 -138 -192 -244q-168 -92 -319 -92q-51 0 -97 28q-52 32 -52 81z" />
<glyph unicode="&#xc0;" horiz-adv-x="2074" d="M139 186q0 115 85 115q61 0 61 -64q0 -78 -73 -78q-18 0 -34 14q-1 -74 100 -117q79 -32 166 -32q272 0 597 227q-226 238 -226 469q0 143 71 242q80 110 218 110q275 0 423 -401q174 154 347 308q229 197 406 302q233 138 421 150q-177 -113 -597 -620q-8 -8 -570 -713 q80 17 174 60q82 39 165 78l8 1l8 -12l-5 -11q-178 -123 -372 -146l-41 -68h-135l50 79q-107 25 -172 57q-57 29 -152 100q-339 -236 -623 -236q-101 0 -190 42q-110 53 -110 144zM852 699q0 -209 208 -430q212 175 227 187q128 108 219 197q-101 366 -375 366 q-131 0 -208 -96q-71 -89 -71 -224zM1084 253q149 -117 320 -150q120 175 120 386q0 65 -12 134q-115 -107 -428 -370zM1512 251q272 313 544 627q414 459 564 520q-224 -42 -572 -313q-56 -43 -514 -441q17 -106 17 -174q0 -109 -39 -219zM2440 1731q0 43 37 43 q27 0 37 -33q5 -26 11 -52q21 -79 119 -147l-6 -8q-61 28 -122 81q-76 67 -76 116z" />
<glyph unicode="&#xc1;" horiz-adv-x="2074" d="M139 186q0 115 85 115q61 0 61 -64q0 -78 -73 -78q-18 0 -34 14q-1 -74 100 -117q79 -32 166 -32q272 0 597 227q-226 238 -226 469q0 143 71 242q80 110 218 110q275 0 423 -401q174 154 347 308q229 197 406 302q233 138 421 150q-177 -113 -597 -620q-8 -8 -570 -713 q80 17 174 60q82 39 165 78l8 1l8 -12l-5 -11q-178 -123 -372 -146l-41 -68h-135l50 79q-107 25 -172 57q-57 29 -152 100q-339 -236 -623 -236q-101 0 -190 42q-110 53 -110 144zM852 699q0 -209 208 -430q212 175 227 187q128 108 219 197q-101 366 -375 366 q-131 0 -208 -96q-71 -89 -71 -224zM1084 253q149 -117 320 -150q120 175 120 386q0 65 -12 134q-115 -107 -428 -370zM1512 251q272 313 544 627q414 459 564 520q-224 -42 -572 -313q-56 -43 -514 -441q17 -106 17 -174q0 -109 -39 -219zM2657 1560q87 64 118 146 q0 85 57 85q30 0 30 -37q0 -53 -75 -120q-58 -51 -123 -83z" />
<glyph unicode="&#xc2;" horiz-adv-x="2074" d="M139 186q0 115 85 115q61 0 61 -64q0 -78 -73 -78q-18 0 -34 14q-1 -74 100 -117q79 -32 166 -32q272 0 597 227q-226 238 -226 469q0 143 71 242q80 110 218 110q275 0 423 -401q174 154 347 308q229 197 406 302q233 138 421 150q-177 -113 -597 -620q-8 -8 -570 -713 q80 17 174 60q82 39 165 78l8 1l8 -12l-5 -11q-178 -123 -372 -146l-41 -68h-135l50 79q-107 25 -172 57q-57 29 -152 100q-339 -236 -623 -236q-101 0 -190 42q-110 53 -110 144zM852 699q0 -209 208 -430q212 175 227 187q128 108 219 197q-101 366 -375 366 q-131 0 -208 -96q-71 -89 -71 -224zM1084 253q149 -117 320 -150q120 175 120 386q0 65 -12 134q-115 -107 -428 -370zM1512 251q272 313 544 627q414 459 564 520q-224 -42 -572 -313q-56 -43 -514 -441q17 -106 17 -174q0 -109 -39 -219zM2486 1542v7q128 91 239 223h15 q23 -137 87 -228l-13 -10q-58 45 -100 144q-127 -105 -228 -136z" />
<glyph unicode="&#xc3;" horiz-adv-x="2074" d="M141 186q0 115 85 115q59 0 59 -64q0 -78 -71 -78q-17 0 -34 14q-1 -74 100 -117q79 -32 166 -32q272 0 597 227q-226 238 -226 469q0 143 71 242q80 110 218 110q275 0 424 -401l346 308q229 197 406 302q233 138 421 150q-176 -113 -597 -620q-7 -8 -570 -713 q80 17 174 60q83 39 165 78l8 1l8 -12l-5 -11q-178 -123 -372 -146l-41 -68h-135l50 79q-107 25 -171 57q-58 29 -152 100q-340 -236 -623 -236q-102 0 -191 42q-110 53 -110 144zM854 699q0 -209 208 -430q212 174 227 187q129 108 219 197q-100 366 -375 366 q-131 0 -208 -96q-71 -89 -71 -224zM1086 253q149 -117 320 -150q121 175 121 386q0 65 -13 134q-115 -108 -428 -370zM1514 251q272 313 544 627q414 459 565 520q-225 -42 -573 -313q-55 -43 -514 -441q17 -106 17 -174q0 -109 -39 -219zM2499 1510q68 137 141 137 q23 0 68 -26t69 -26q46 0 87 67h17q-48 -128 -136 -128q-22 0 -64 21t-64 21q-58 0 -99 -66h-19z" />
<glyph unicode="&#xc4;" horiz-adv-x="2074" d="M139 186q0 115 85 115q61 0 61 -64q0 -78 -73 -78q-18 0 -34 14q-1 -74 100 -117q79 -32 166 -32q272 0 597 227q-226 238 -226 469q0 143 71 242q80 110 218 110q275 0 423 -401q174 154 347 308q229 197 406 302q233 138 421 150q-177 -113 -597 -620q-8 -8 -570 -713 q80 17 174 60q82 39 165 78l8 1l8 -12l-5 -11q-178 -123 -372 -146l-41 -68h-135l50 79q-107 25 -172 57q-57 29 -152 100q-339 -236 -623 -236q-101 0 -190 42q-110 53 -110 144zM852 699q0 -209 208 -430q212 175 227 187q128 108 219 197q-101 366 -375 366 q-131 0 -208 -96q-71 -89 -71 -224zM1084 253q149 -117 320 -150q120 175 120 386q0 65 -12 134q-115 -107 -428 -370zM1512 251q272 313 544 627q414 459 564 520q-224 -42 -572 -313q-56 -43 -514 -441q17 -106 17 -174q0 -109 -39 -219zM2575 1586q0 21 15.5 38t36.5 17 q50 0 50 -55q0 -52 -50 -52q-20 0 -36 16t-16 36zM2783 1586q0 55 52 55q50 0 50 -59q0 -48 -50 -48q-52 0 -52 52z" />
<glyph unicode="&#xc5;" horiz-adv-x="2074" d="M139 186q0 115 85 115q61 0 61 -64q0 -78 -73 -78q-18 0 -34 14q-1 -74 100 -117q79 -32 166 -32q272 0 597 227q-226 238 -226 469q0 143 71 242q80 110 218 110q275 0 423 -401q174 154 347 308q229 197 406 302q233 138 421 150q-177 -113 -597 -620q-8 -8 -570 -713 q80 17 174 60q82 39 165 78l8 1l8 -12l-5 -11q-178 -123 -372 -146l-41 -68h-135l50 79q-107 25 -172 57q-57 29 -152 100q-339 -236 -623 -236q-101 0 -190 42q-110 53 -110 144zM852 699q0 -209 208 -430q212 175 227 187q128 108 219 197q-101 366 -375 366 q-131 0 -208 -96q-71 -89 -71 -224zM1084 253q149 -117 320 -150q120 175 120 386q0 65 -12 134q-115 -107 -428 -370zM1512 251q272 313 544 627q414 459 564 520q-224 -42 -572 -313q-56 -43 -514 -441q17 -106 17 -174q0 -109 -39 -219zM2701 1634q0 42 30 71.5t72 29.5 q40 0 70 -30t30 -71q0 -43 -29.5 -71.5t-72.5 -28.5q-42 0 -71 28.5t-29 71.5zM2736 1634q0 -65 66 -65q64 0 64 65q0 63 -62 63q-68 0 -68 -63z" />
<glyph unicode="&#xc6;" horiz-adv-x="3228" d="M156 227q0 43 26.5 76.5t68.5 33.5q68 0 68 -73q0 -85 -80 -85q-20 0 -39 15q-2 -83 112 -131q89 -37 187 -37q302 0 670 256q-253 265 -253 526q0 163 80 273q90 123 246 123q311 0 475 -453l388 348q257 221 457 339q261 156 473 170q-135 -85 -384 -366 q-71 -79 -357 -423q167 58 226 75q128 37 233 48q-25 25 -33 74q-95 -11 -117 -11q-17 0 -17 13q0 18 130 24v20q0 229 282 411q251 161 485 161q186 0 186 -130q0 -167 -377 -326q-287 -122 -533 -158q2 -45 27 -78l52 1q166 6 166 -76q0 -47 -71 -47q-50 0 -156 91 q-212 -11 -421 -151q-199 -132 -314 -323q-83 -139 -83 -218q0 -16 5 -33q208 139 417 278q264 164 456 164q75 0 134 -33q73 -40 73 -109q0 -222 -285 -362q-234 -115 -479 -115q-264 0 -346 126q-106 -45 -235 -59q-28 -38 -48 -76h-150q26 55 57 87q-121 30 -194 66 q-63 31 -171 111q-382 -264 -699 -264q-126 0 -220 50q-118 62 -118 177zM956 786q0 -236 235 -487q170 140 499 433q-45 178 -140 285q-114 127 -280 127q-147 0 -234 -107q-80 -100 -80 -251zM1217 284q169 -132 360 -168q135 193 135 431q0 74 -13 152 q-131 -118 -482 -415zM1699 282l610 704q466 518 633 585q-253 -49 -643 -352q-82 -64 -576 -496q19 -118 19 -195q0 -122 -43 -246zM1723 109q65 14 191 53q-33 60 -37 137zM1977 157q78 -115 298 -115q228 0 457 106q282 130 282 332q0 60 -60 91q-48 26 -113 26 q-179 0 -449 -166q-207 -137 -415 -274zM2762 1046q244 48 509 157q371 154 371 299q0 102 -158 102q-182 0 -421 -194q-226 -183 -301 -364zM2825 911q67 -61 116 -61q32 0 32 21q0 43 -131 40h-17z" />
<glyph unicode="&#xc7;" horiz-adv-x="1543" d="M172 1012q0 251 286 402q240 126 511 119l41 -2l12 -14l-9 -12q-592 0 -781 -345q-34 -63 -34 -142q0 -120 114 -196q100 -67 225 -67q46 0 93 10q226 223 534 424q384 251 607 251q145 0 145 -90q0 -224 -612 -463q-201 -78 -544 -138q-102 -90 -225 -272 q-139 -207 -139 -311q0 -72 87 -112q69 -31 150 -31q173 0 392 123q245 138 245 297q0 49 -46 78q-39 23 -91 23q-136 0 -300 -102q-116 -73 -238 -191l-100 -104l-10 11l4 10q76 135 286 267q215 133 365 133q63 0 106 -31q48 -35 48 -96q0 -171 -244 -315 q-223 -131 -427 -131q-32 0 -58 5l-54 -79q30 20 63 20q79 0 79 -85q0 -91 -76.5 -159t-168.5 -68q-10 0 -31 15.5t-21 25.5q0 26 16 37q8 17 28 16l19 -20l-11 -11l-28 -4q-3 -35 52 -35q65 0 119 83q48 75 48 144q0 41 -36 41q-47 0 -91 -39q-49 -43 -53 -44v9 q48 46 118 160q-84 22 -139 73q-65 60 -65 140q0 230 260 514q-31 -6 -65 -6q-131 0 -237 75q-119 83 -119 209zM797 786q275 33 496 123q598 243 598 442q0 62 -118 62q-235 0 -534 -224q-160 -120 -442 -403z" />
<glyph unicode="&#xc8;" horiz-adv-x="1461" d="M154 265q0 242 278 411q228 138 500 163l-30 61q-83 -20 -190 -20q-408 0 -408 261q0 203 244 316q198 92 421 86l33 -1l15 -13l-13 -13q-123 -15 -245 -31q-148 -21 -236 -66q-116 -59 -172 -173q-20 -44 -20 -104q0 -239 389 -239q102 0 180 21l-1 15q-4 206 244 369 q222 147 440 147q65 0 111 -25q57 -32 57 -93q0 -144 -339 -288q-261 -111 -473 -142q2 -38 24 -68l45 1q149 6 149 -69q0 -41 -61 -41q-55 0 -142 83q-189 -12 -375 -136q-177 -118 -279 -288q-72 -120 -72 -194q0 -85 106 -128q77 -30 179 -30q199 0 403 96 q248 118 248 295q0 53 -53 81q-42 22 -100 22q-161 0 -349 -116q-160 -99 -284 -245l-8 -4l-13 12l2 8q84 136 291 254t365 118q64 0 116 -30q61 -36 61 -96q0 -195 -255 -321q-210 -103 -427 -103q-144 0 -239 54q-117 68 -117 203zM941 931q207 38 452 141 q331 138 331 265q0 45 -44 70q-36 21 -83 21q-173 0 -384 -168q-200 -159 -272 -329zM997 813q61 -57 105 -57q26 0 26 18q0 42 -112 39h-19zM1483 1725q0 45 38 45q25 0 39 -35q2 -17 9 -48q22 -79 117 -149l-6 -9q-61 30 -121 82q-76 66 -76 114z" />
<glyph unicode="&#xc9;" horiz-adv-x="1461" d="M154 265q0 242 278 411q228 138 500 163l-30 61q-83 -20 -190 -20q-408 0 -408 261q0 203 244 316q198 92 421 86l33 -1l15 -13l-13 -13q-123 -15 -245 -31q-148 -21 -236 -66q-116 -59 -172 -173q-20 -44 -20 -104q0 -239 389 -239q102 0 180 21l-1 15q-4 206 244 369 q222 147 440 147q65 0 111 -25q57 -32 57 -93q0 -144 -339 -288q-261 -111 -473 -142q2 -38 24 -68l45 1q149 6 149 -69q0 -41 -61 -41q-55 0 -142 83q-189 -12 -375 -136q-177 -118 -279 -288q-72 -120 -72 -194q0 -85 106 -128q77 -30 179 -30q199 0 403 96 q248 118 248 295q0 53 -53 81q-42 22 -100 22q-161 0 -349 -116q-160 -99 -284 -245l-8 -4l-13 12l2 8q84 136 291 254t365 118q64 0 116 -30q61 -36 61 -96q0 -195 -255 -321q-210 -103 -427 -103q-144 0 -239 54q-117 68 -117 203zM941 931q207 38 452 141 q331 138 331 265q0 45 -44 70q-36 21 -83 21q-173 0 -384 -168q-200 -159 -272 -329zM997 813q61 -57 105 -57q26 0 26 18q0 42 -112 39h-19zM1556 1534q86 59 119 148q0 83 56 83q29 0 29 -38q0 -53 -74 -119q-59 -53 -124 -83z" />
<glyph unicode="&#xca;" horiz-adv-x="1461" d="M154 265q0 242 278 411q228 138 500 163l-30 61q-83 -20 -190 -20q-408 0 -408 261q0 203 244 316q198 92 421 86l33 -1l15 -13l-13 -13q-123 -15 -245 -31q-148 -21 -236 -66q-116 -59 -172 -173q-20 -44 -20 -104q0 -239 389 -239q102 0 180 21l-1 15q-4 206 244 369 q222 147 440 147q65 0 111 -25q57 -32 57 -93q0 -144 -339 -288q-261 -111 -473 -142q2 -38 24 -68l45 1q149 6 149 -69q0 -41 -61 -41q-55 0 -142 83q-189 -12 -375 -136q-177 -118 -279 -288q-72 -120 -72 -194q0 -85 106 -128q77 -30 179 -30q199 0 403 96 q248 118 248 295q0 53 -53 81q-42 22 -100 22q-161 0 -349 -116q-160 -99 -284 -245l-8 -4l-13 12l2 8q84 136 291 254t365 118q64 0 116 -30q61 -36 61 -96q0 -195 -255 -321q-210 -103 -427 -103q-144 0 -239 54q-117 68 -117 203zM941 931q207 38 452 141 q331 138 331 265q0 45 -44 70q-36 21 -83 21q-173 0 -384 -168q-200 -159 -272 -329zM997 813q61 -57 105 -57q26 0 26 18q0 42 -112 39h-19zM1471 1542v7q127 92 237 223h15q23 -137 87 -227l-13 -11q-58 45 -100 144q-126 -104 -226 -136z" />
<glyph unicode="&#xcb;" horiz-adv-x="1461" d="M154 265q0 242 278 411q228 138 500 163l-30 61q-83 -20 -190 -20q-408 0 -408 261q0 203 244 316q198 92 421 86l33 -1l15 -13l-13 -13q-123 -15 -245 -31q-148 -21 -236 -66q-116 -59 -172 -173q-20 -44 -20 -104q0 -239 389 -239q102 0 180 21l-1 15q-4 206 244 369 q222 147 440 147q65 0 111 -25q57 -32 57 -93q0 -144 -339 -288q-261 -111 -473 -142q2 -38 24 -68l45 1q149 6 149 -69q0 -41 -61 -41q-55 0 -142 83q-189 -12 -375 -136q-177 -118 -279 -288q-72 -120 -72 -194q0 -85 106 -128q77 -30 179 -30q199 0 403 96 q248 118 248 295q0 53 -53 81q-42 22 -100 22q-161 0 -349 -116q-160 -99 -284 -245l-8 -4l-13 12l2 8q84 136 291 254t365 118q64 0 116 -30q61 -36 61 -96q0 -195 -255 -321q-210 -103 -427 -103q-144 0 -239 54q-117 68 -117 203zM941 931q207 38 452 141 q331 138 331 265q0 45 -44 70q-36 21 -83 21q-173 0 -384 -168q-200 -159 -272 -329zM997 813q61 -57 105 -57q26 0 26 18q0 42 -112 39h-19zM1506 1652q0 52 52 52t52 -52q0 -53 -52 -53q-20 0 -36 16.5t-16 36.5zM1714 1652q0 52 52 52q53 0 53 -52q0 -53 -53 -53 q-52 0 -52 53z" />
<glyph unicode="&#xcc;" horiz-adv-x="1485" d="M137 171q0 43 25.5 74.5t67.5 31.5q57 0 57 -59q0 -64 -63 -64q-21 0 -41 21q-6 -12 -6 -28q0 -75 94 -110q68 -25 160 -25q313 0 543 225q129 126 354 493q-168 59 -168 212q0 268 376 437q304 137 609 137q115 0 125 -18l-6 -8q-300 -101 -483 -289 q-128 -132 -323 -465q102 6 192 69q69 48 146 143q63 82 127 164l10 5l12 -10q-1 -10 -79 -112q-102 -132 -182 -193q-114 -88 -243 -94q-441 -721 -1011 -721q-109 0 -189 37q-104 49 -104 147zM1193 911q0 -52 51 -99q44 -41 99 -58q206 294 368 445q219 205 490 295 q-267 -2 -503 -85q-276 -98 -418 -282q-87 -112 -87 -216zM2062 1797q0 42 37 42q25 0 39 -35q2 -16 9 -50q22 -79 119 -146l-6 -9q-64 30 -123 81q-75 65 -75 117z" />
<glyph unicode="&#xcd;" horiz-adv-x="1485" d="M137 171q0 43 25.5 74.5t67.5 31.5q57 0 57 -59q0 -64 -63 -64q-21 0 -41 21q-6 -12 -6 -28q0 -75 94 -110q68 -25 160 -25q313 0 543 225q129 126 354 493q-168 59 -168 212q0 268 376 437q304 137 609 137q115 0 125 -18l-6 -8q-300 -101 -483 -289 q-128 -132 -323 -465q102 6 192 69q69 48 146 143q63 82 127 164l10 5l12 -10q-1 -10 -79 -112q-102 -132 -182 -193q-114 -88 -243 -94q-441 -721 -1011 -721q-109 0 -189 37q-104 49 -104 147zM1193 911q0 -52 51 -99q44 -41 99 -58q206 294 368 445q219 205 490 295 q-267 -2 -503 -85q-276 -98 -418 -282q-87 -112 -87 -216zM2175 1606q85 58 117 146q0 85 58 85q29 0 29 -37q0 -55 -73 -121q-58 -51 -125 -82z" />
<glyph unicode="&#xce;" horiz-adv-x="1485" d="M139 171q0 43 26 74.5t67 31.5q57 0 57 -59q0 -64 -62 -64q-22 0 -42 21q-6 -12 -6 -28q0 -75 94 -110q68 -25 160 -25q313 0 543 225q129 126 354 493q-168 59 -168 212q0 268 376 437q304 137 609 137q115 0 126 -18l-7 -8q-300 -101 -483 -289q-128 -132 -323 -465 q102 6 192 69q69 48 146 143q64 82 127 164l11 5l11 -10q-1 -10 -79 -112q-102 -132 -182 -193q-113 -88 -243 -94q-440 -721 -1010 -721q-110 0 -190 37q-104 49 -104 147zM1195 911q0 -52 51 -99q44 -41 99 -58q207 294 368 445q219 205 490 295q-267 -2 -503 -85 q-276 -98 -418 -282q-87 -112 -87 -216zM2032 1608v6q131 96 239 223h13q22 -137 87 -227l-14 -11q-58 47 -97 142q-135 -104 -228 -133z" />
<glyph unicode="&#xcf;" horiz-adv-x="1485" d="M137 171q0 43 25.5 74.5t67.5 31.5q57 0 57 -59q0 -64 -63 -64q-21 0 -41 21q-6 -12 -6 -28q0 -75 94 -110q68 -25 160 -25q313 0 543 225q129 126 354 493q-168 59 -168 212q0 268 376 437q304 137 609 137q115 0 125 -18l-6 -8q-300 -101 -483 -289 q-128 -132 -323 -465q102 6 192 69q69 48 146 143q63 82 127 164l10 5l12 -10q-1 -10 -79 -112q-102 -132 -182 -193q-114 -88 -243 -94q-441 -721 -1011 -721q-109 0 -189 37q-104 49 -104 147zM1193 911q0 -52 51 -99q44 -41 99 -58q206 294 368 445q219 205 490 295 q-267 -2 -503 -85q-276 -98 -418 -282q-87 -112 -87 -216zM2038 1693q0 20 15 37.5t35 17.5q52 0 52 -55q0 -50 -52 -50q-18 0 -34 16t-16 34zM2247 1693q0 55 50 55q52 0 52 -55q0 -50 -52 -50q-19 0 -34.5 15.5t-15.5 34.5z" />
<glyph unicode="&#xd1;" horiz-adv-x="1937" d="M139 178q0 43 23 74.5t64 31.5q28 0 50 -18.5t22 -45.5q0 -67 -80 -67q-41 0 -53 37q7 -175 249 -175q383 0 814 516q303 363 632 773l9 4l12 -9l-2 -8q-43 -90 -86 -179q-48 -102 -66 -190q-52 -257 -83 -363q-37 -125 -125 -334l554 684q161 199 353 326 q232 155 445 155q83 0 154 -34q88 -42 88 -117q0 -32 -23.5 -54.5t-54.5 -22.5q-50 0 -50 64q0 44 76 59q-38 80 -186 80q-211 0 -440 -151q-188 -126 -347 -323q-175 -214 -350 -429q-201 -251 -332 -442l-15 -9l-7 7v8q27 66 54 131q30 75 40 138q34 230 82 390 q42 142 141 372l-454 -546q-432 -520 -834 -520q-103 0 -179 41q-95 51 -95 146zM139 178q0 43 23 74.5t64 31.5q28 0 50 -18.5t22 -45.5q0 -67 -80 -67q-41 0 -53 37q7 -175 249 -175q383 0 814 516q303 363 632 773l9 4l12 -9l-2 -8q-43 -90 -86 -179q-48 -102 -66 -190 q-52 -257 -83 -363q-37 -125 -125 -334l554 684q161 199 353 326q232 155 445 155q83 0 154 -34q88 -42 88 -117q0 -32 -23.5 -54.5t-54.5 -22.5q-50 0 -50 64q0 44 76 59q-38 80 -186 80q-211 0 -440 -151q-188 -126 -347 -323q-175 -214 -350 -429q-201 -251 -332 -442 l-15 -9l-7 7v8q27 66 54 131q30 75 40 138q34 230 82 390q42 142 141 372l-454 -546q-432 -520 -834 -520q-103 0 -179 41q-95 51 -95 146zM2092 1385q68 135 142 135q24 0 68.5 -24.5t67.5 -24.5q46 0 87 65h18q-49 -127 -136 -127q-23 0 -64.5 21.5t-63.5 21.5 q-58 0 -99 -67h-20z" />
<glyph unicode="&#xd2;" horiz-adv-x="1300" d="M170 286q0 258 248 564q229 283 559 483q338 205 591 205q117 0 196 -38q105 -50 105 -156q0 -102 -101 -174q-93 -67 -197 -62l-13 11q77 26 154 53q132 54 132 174q0 91 -98 135q-73 33 -177 33q-561 0 -1128 -845q-203 -304 -203 -488q0 -73 63 -110q53 -31 130 -31 q204 0 467 216q244 200 421 481q183 289 183 494q0 63 -37 108q-39 50 -101 50q-142 0 -306 -167.5t-164 -311.5q0 -45 27.5 -77.5t72.5 -32.5q145 0 265 165q88 120 145 298l11 9l13 -16q0 -133 -151 -305q-155 -178 -288 -178q-56 0 -89.5 40t-33.5 98q0 181 157 342.5 t336 161.5q77 0 123 -60q43 -55 43 -133q0 -210 -187 -505q-181 -285 -431 -487q-270 -219 -479 -219q-124 0 -192 76q-66 73 -66 199zM1560 1840q0 43 39 43q25 0 39 -35q2 -17 9 -50q23 -81 117 -146l-6 -9q-62 29 -122 81q-76 66 -76 116z" />
<glyph unicode="&#xd3;" horiz-adv-x="1300" d="M170 286q0 258 248 564q229 283 559 483q338 205 591 205q117 0 196 -38q105 -50 105 -156q0 -102 -101 -174q-93 -67 -197 -62l-13 11q77 26 154 53q132 54 132 174q0 91 -98 135q-73 33 -177 33q-561 0 -1128 -845q-203 -304 -203 -488q0 -73 63 -110q53 -31 130 -31 q204 0 467 216q244 200 421 481q183 289 183 494q0 63 -37 108q-39 50 -101 50q-142 0 -306 -167.5t-164 -311.5q0 -45 27.5 -77.5t72.5 -32.5q145 0 265 165q88 120 145 298l11 9l13 -16q0 -133 -151 -305q-155 -178 -288 -178q-56 0 -89.5 40t-33.5 98q0 181 157 342.5 t336 161.5q77 0 123 -60q43 -55 43 -133q0 -210 -187 -505q-181 -285 -431 -487q-270 -219 -479 -219q-124 0 -192 76q-66 73 -66 199zM1669 1654q87 64 117 146q0 85 58 85q29 0 29 -37q0 -55 -74 -120q-56 -50 -124 -83z" />
<glyph unicode="&#xd4;" horiz-adv-x="1300" d="M170 286q0 258 248 564q229 283 559 483q338 205 591 205q117 0 196 -38q105 -50 105 -156q0 -102 -101 -174q-93 -67 -197 -62l-13 11q77 26 154 53q132 54 132 174q0 91 -98 135q-73 33 -177 33q-561 0 -1128 -845q-203 -304 -203 -488q0 -73 63 -110q53 -31 130 -31 q204 0 467 216q244 200 421 481q183 289 183 494q0 63 -37 108q-39 50 -101 50q-142 0 -306 -167.5t-164 -311.5q0 -45 27.5 -77.5t72.5 -32.5q145 0 265 165q88 120 145 298l11 9l13 -16q0 -133 -151 -305q-155 -178 -288 -178q-56 0 -89.5 40t-33.5 98q0 181 157 342.5 t336 161.5q77 0 123 -60q43 -55 43 -133q0 -210 -187 -505q-181 -285 -431 -487q-270 -219 -479 -219q-124 0 -192 76q-66 73 -66 199zM1521 1654v6q128 89 239 223h15q23 -140 87 -227l-13 -11q-59 47 -100 142q-123 -101 -228 -133z" />
<glyph unicode="&#xd5;" horiz-adv-x="1300" d="M168 286q0 258 248 564q229 283 559 483q338 205 591 205q117 0 196 -38q104 -50 104 -156q0 -102 -100 -174q-93 -67 -197 -62l-13 11q77 26 154 53q132 54 132 174q0 91 -98 135q-74 33 -178 33q-560 0 -1127 -845q-204 -304 -204 -488q0 -73 64 -110q52 -31 130 -31 q204 0 467 216q244 200 421 481q183 290 183 494q0 63 -37 108q-40 50 -101 50q-142 0 -306 -167.5t-164 -311.5q0 -45 27.5 -77.5t72.5 -32.5q145 0 265 165q88 120 144 298l12 9l12 -16q0 -133 -150 -305q-155 -178 -288 -178q-57 0 -90 40t-33 98q0 181 157 342.5 t336 161.5q76 0 123 -60q43 -55 43 -133q0 -210 -187 -505q-181 -285 -431 -487q-270 -219 -480 -219q-123 0 -191 76q-66 73 -66 199zM1554 1641q67 135 140 135q23 0 68 -26t69 -26q44 0 85 67h20q-52 -127 -138 -127q-22 0 -64 20.5t-64 20.5q-58 0 -97 -64h-19z" />
<glyph unicode="&#xd6;" horiz-adv-x="1300" d="M168 286q0 258 248 564q229 283 559 483q338 205 591 205q117 0 196 -38q104 -50 104 -156q0 -102 -100 -174q-93 -67 -197 -62l-13 11q77 26 154 53q132 54 132 174q0 91 -98 135q-74 33 -178 33q-560 0 -1127 -845q-204 -304 -204 -488q0 -73 64 -110q52 -31 130 -31 q204 0 467 216q244 200 421 481q183 290 183 494q0 63 -37 108q-40 50 -101 50q-142 0 -306 -167.5t-164 -311.5q0 -45 27.5 -77.5t72.5 -32.5q145 0 265 165q88 120 144 298l12 9l12 -16q0 -133 -150 -305q-155 -178 -288 -178q-57 0 -90 40t-33 98q0 181 157 342.5 t336 161.5q76 0 123 -60q43 -55 43 -133q0 -210 -187 -505q-181 -285 -431 -487q-270 -219 -480 -219q-123 0 -191 76q-66 73 -66 199zM1558 1713q0 21 15.5 37.5t36.5 16.5q52 0 52 -54q0 -51 -52 -51q-19 0 -35.5 16t-16.5 35zM1766 1713q0 54 53 54q52 0 52 -54 q0 -51 -52 -51q-20 0 -36.5 15.5t-16.5 35.5z" />
<glyph unicode="&#xd8;" horiz-adv-x="1461" d="M123 -123q22 42 78 101l88 94q-101 78 -101 267q0 267 279 608q260 318 627 546q381 237 660 237q35 0 67 -4q62 70 151 153l15 -13q-18 -32 -59 -76q-33 -35 -66 -71q92 -11 158 -63q75 -59 75 -147q0 -108 -102 -189q-96 -76 -206 -75h-25l-15 14q5 7 92 30 q98 26 150 65q79 58 79 158q0 81 -75 133q-64 45 -150 52q-57 -62 -170 -185q37 -63 37 -152q0 -231 -212 -560q-205 -317 -486 -543q-304 -245 -535 -245q-81 0 -162 36q-76 -86 -177 -183zM265 202q0 -68 46 -104l346 408q208 245 360 396q-47 46 -47 123q0 194 173.5 379 t365.5 185q61 0 134 -42q50 52 154 153h-15q-653 0 -1289 -951q-228 -341 -228 -547zM339 76q58 -32 140 -32q228 0 524 242q275 224 475 539q206 324 206 553q0 64 -31 112l-60 -66l9 -7l-1 -6q-29 -164 -168 -341q-156 -201 -309 -201q-16 0 -31 3zM1002 1022 q0 -60 37 -96q186 205 584 597q-35 36 -93 36q-161 0 -344.5 -187.5t-183.5 -349.5zM1117 898q148 2 287 181q113 145 165 317q-150 -167 -452 -498z" />
<glyph unicode="&#xd9;" horiz-adv-x="1548" d="M154 996q0 209 276 344q228 111 460 111q125 0 206 -43q103 -55 103 -170q0 -160 -242 -440q-114 -132 -450 -458q-243 -234 -243 -283q0 -13 26 -23q22 -9 37 -9q209 0 548 272q250 201 576 555l396 446h113q-288 -324 -576 -647q-498 -566 -498 -603q0 -25 46 -25 q99 0 252 108q166 116 183 120l13 -12q-5 -46 -202 -147q-192 -97 -253 -97q-78 0 -78 73q0 67 63 162q20 32 109 144q-134 -124 -317 -236q-229 -141 -355 -141q-125 0 -125 82q0 121 244 375q225 223 451 447q244 253 244 373q0 81 -104 121q-75 29 -172 29 q-218 0 -437 -104q-266 -127 -266 -322q0 -126 185 -126q162 0 375 128q182 110 316 254l10 5l12 -13l-2 -10q-74 -137 -310 -268q-230 -127 -391 -127q-87 0 -148 33q-75 42 -75 122zM1369 1600q0 43 39 43q25 0 39 -35q2 -17 9 -50q22 -81 117 -147l-6 -8q-63 29 -122 81 q-76 66 -76 116z" />
<glyph unicode="&#xda;" horiz-adv-x="1548" d="M156 996q0 209 276 344q228 111 460 111q125 0 206 -43q103 -55 103 -170q0 -160 -242 -440q-114 -132 -450 -458q-243 -234 -243 -283q0 -13 27 -23q21 -9 37 -9q208 0 547 272q250 201 576 555l396 446h113q-288 -324 -576 -647q-498 -566 -498 -603q0 -25 46 -25 q100 0 253 108q165 116 182 120l14 -12q-6 -46 -203 -147q-192 -97 -253 -97q-78 0 -78 73q0 67 63 162q21 32 109 144q-134 -124 -317 -236q-229 -141 -355 -141q-125 0 -125 82q0 121 244 375q226 223 452 447q243 253 243 373q0 81 -104 121q-75 29 -172 29 q-218 0 -437 -104q-266 -127 -266 -322q0 -126 185 -126q162 0 376 128q182 110 315 254l10 5l12 -13l-2 -10q-74 -137 -310 -268q-230 -127 -391 -127q-87 0 -148 33q-75 42 -75 122zM1501 1370q88 60 120 146q0 85 56 85q29 0 29 -37q0 -54 -75 -120q-58 -52 -123 -83z " />
<glyph unicode="&#xdb;" horiz-adv-x="1548" d="M156 996q0 209 276 344q228 111 460 111q125 0 206 -43q103 -55 103 -170q0 -160 -242 -440q-114 -132 -450 -458q-243 -234 -243 -283q0 -13 27 -23q21 -9 37 -9q208 0 547 272q250 201 576 555l396 446h113q-288 -324 -576 -647q-498 -566 -498 -603q0 -25 46 -25 q100 0 253 108q165 116 182 120l14 -12q-6 -46 -203 -147q-192 -97 -253 -97q-78 0 -78 73q0 67 63 162q21 32 109 144q-134 -124 -317 -236q-229 -141 -355 -141q-125 0 -125 82q0 121 244 375q226 223 452 447q243 253 243 373q0 81 -104 121q-75 29 -172 29 q-218 0 -437 -104q-266 -127 -266 -322q0 -126 185 -126q162 0 376 128q182 110 315 254l10 5l12 -13l-2 -10q-74 -137 -310 -268q-230 -127 -391 -127q-87 0 -148 33q-75 42 -75 122zM1373 1411v7q122 84 239 223h15q24 -140 85 -228l-13 -10q-57 47 -98 142 q-137 -106 -228 -134z" />
<glyph unicode="&#xdc;" horiz-adv-x="1548" d="M156 996q0 209 276 344q228 111 460 111q125 0 206 -43q103 -55 103 -170q0 -160 -242 -440q-114 -132 -450 -458q-243 -234 -243 -283q0 -13 27 -23q21 -9 37 -9q208 0 547 272q250 201 576 555l396 446h113q-288 -324 -576 -647q-498 -566 -498 -603q0 -25 46 -25 q100 0 253 108q165 116 182 120l14 -12q-6 -46 -203 -147q-192 -97 -253 -97q-78 0 -78 73q0 67 63 162q21 32 109 144q-134 -124 -317 -236q-229 -141 -355 -141q-125 0 -125 82q0 121 244 375q226 223 452 447q243 253 243 373q0 81 -104 121q-75 29 -172 29 q-218 0 -437 -104q-266 -127 -266 -322q0 -126 185 -126q162 0 376 128q182 110 315 254l10 5l12 -13l-2 -10q-74 -137 -310 -268q-230 -127 -391 -127q-87 0 -148 33q-75 42 -75 122zM1388 1477q0 20 16.5 36t36.5 16q50 0 50 -52q0 -53 -50 -53q-20 0 -36.5 16.5 t-16.5 36.5zM1597 1477q0 52 52 52q50 0 50 -52q0 -53 -50 -53q-52 0 -52 53z" />
<glyph unicode="&#xdd;" horiz-adv-x="1406" d="M957 1669q85 53 120 146q-1 83 56 83q29 0 29 -36q0 -54 -74 -120q-60 -53 -124 -82zM201 176q0 52 29 87.5t79 35.5q58 0 58 -48q0 -26 -18.5 -46t-43.5 -20q-29 0 -55 33q-12 -26 -12 -55q0 -66 89 -98q63 -23 145 -23q213 0 420 196q78 74 310 369 q-291 -253 -465 -253q-143 0 -143 104q0 127 159 296q147 141 295 283q159 159 159 262q0 65 -95 103q-74 31 -150 31q-195 0 -411 -116q-250 -134 -250 -311q0 -115 162 -115q231 0 545 288q34 34 77 71l12 -12l-4 -10q-358 -364 -629 -364q-78 0 -129 32q-61 38 -61 113 q0 192 259 330q221 118 433 118q95 0 173 -39q97 -48 97 -135q0 -155 -150 -333q-9 -10 -281 -281q-151 -151 -151 -238q0 -50 87 -50q117 0 313 140q153 110 269 235l491 529h139l-738 -824q-183 -204 -328 -303q-206 -140 -415 -140q-102 0 -173 29q-98 42 -98 129z" />
<glyph unicode="&#xdf;" horiz-adv-x="855" d="M-797 -577q180 211 359 422q184 226 301 443q-46 -35 -115 -75l-13 15l6 12l148 96q16 67 29 91q26 47 75 47q15 0 26.5 -15.5t8.5 -30.5q44 29 126 94q210 225 421 450q315 318 465 318q31 0 54.5 -21t23.5 -51q0 -100 -76 -228q-66 -113 -153 -190q-54 -48 -170.5 -96 t-156.5 -84q-69 -63 -71 -181q0 -18 2 -52t2 -50q0 -89 -41 -160q47 8 150 69l15 -16l-4 -12q-86 -74 -187 -78q-61 -55 -140 -97q-94 -51 -160 -51q-111 0 -111 83q0 91 74 91q46 0 46 -41q0 -71 -81 -68q3 -32 34 -32q120 0 235 162q104 148 114 278q10 139 154 249 q140 96 281 191q165 128 212 294l2 15q0 45 -54 45q-152 0 -463 -368l-1240 -1468h-128zM-159 175l61 70l-6 30zM-72 292l5 -19l89 101q-30 -16 -59 -31q-35 -23 -35 -51z" />
<glyph unicode="&#xe0;" horiz-adv-x="703" d="M-256 101q0 116 153 221q141 97 263 97q101 0 101 -77q0 -18 -7 -41q25 25 105 118h115l-176 -192q-142 -159 -144 -182l16 -13q51 -2 179.5 90.5t132.5 93.5l12 -15q-1 -34 -152 -119q-147 -84 -191 -84q-60 0 -60 64q0 27 9 52q-148 -117 -250 -117q-106 0 -106 104z M-201 60q0 -36 43 -36q90 0 237 112q152 117 152 203q0 51 -58 51q-72 0 -223 -130t-151 -200zM93 702q0 41 37 41q25 0 39 -35l9 -48q23 -79 117 -149l-4 -9q-62 30 -122 83q-76 66 -76 117z" />
<glyph unicode="&#xe1;" horiz-adv-x="703" d="M-256 101q0 116 153 221q141 97 263 97q101 0 101 -77q0 -18 -7 -41q25 25 105 118h115l-176 -192q-142 -159 -144 -182l16 -13q51 -2 179.5 90.5t132.5 93.5l12 -15q-1 -34 -152 -119q-147 -84 -191 -84q-60 0 -60 64q0 27 9 52q-148 -117 -250 -117q-106 0 -106 104z M-201 60q0 -36 43 -36q90 0 237 112q152 117 152 203q0 51 -58 51q-72 0 -223 -130t-151 -200zM259 513q83 58 117 149q0 83 58 83q29 0 29 -37q0 -53 -75 -119q-59 -53 -123 -84z" />
<glyph unicode="&#xe2;" horiz-adv-x="703" d="M-256 101q0 116 153 221q141 97 263 97q101 0 101 -77q0 -18 -7 -41q25 25 105 118h115q-88 -96 -175 -192q-143 -161 -145 -180l13 -9q96 -4 315 185l13 -15q-1 -40 -149 -123q-143 -80 -194 -80q-61 0 -61 57q0 27 9 52q-148 -117 -250 -117q-106 0 -106 104zM-201 60 q0 -36 43 -36q90 0 237 112q152 117 152 203q0 51 -58 51q-72 0 -223 -130t-151 -200zM135 511v7q128 91 239 223h15q23 -138 87 -228l-13 -11q-58 46 -100 145q-127 -105 -228 -136z" />
<glyph unicode="&#xe3;" horiz-adv-x="703" d="M-256 101q0 116 153 221q141 97 263 97q101 0 101 -77q0 -18 -7 -41q25 25 105 118h115l-176 -192q-142 -159 -144 -182l16 -13q51 -2 179.5 90.5t132.5 93.5l12 -15q-1 -34 -152 -119q-147 -84 -191 -84q-60 0 -60 64q0 27 9 52q-148 -117 -250 -117q-106 0 -106 104z M-201 60q0 -36 43 -36q90 0 237 112q152 117 152 203q0 51 -58 51q-72 0 -223 -130t-151 -200zM159 481q70 135 140 135q23 0 68.5 -26t68.5 -26q47 0 85 67h20q-53 -129 -137 -129q-22 0 -64 21.5t-64 21.5q-53 0 -98 -64h-19z" />
<glyph unicode="&#xe4;" horiz-adv-x="703" d="M-256 101q0 116 153 221q141 97 263 97q101 0 101 -77q0 -18 -7 -41q25 25 105 118h115l-176 -192q-142 -159 -144 -182l16 -13q51 -2 179.5 90.5t132.5 93.5l12 -15q-1 -34 -152 -119q-147 -84 -191 -84q-60 0 -60 64q0 27 9 52q-148 -117 -250 -117q-106 0 -106 104z M-201 60q0 -36 43 -36q90 0 237 112q152 117 152 203q0 51 -58 51q-72 0 -223 -130t-151 -200zM217 555q0 55 52 55q50 0 50 -55q0 -53 -50 -53q-52 0 -52 53zM365 555q0 55 52 55t52 -55q0 -53 -52 -53t-52 53z" />
<glyph unicode="&#xe5;" horiz-adv-x="703" d="M-256 101q0 116 153 221q141 97 263 97q101 0 101 -77q0 -18 -7 -41q25 25 105 118h115l-176 -192q-142 -159 -144 -182l16 -13q51 -2 179.5 90.5t132.5 93.5l12 -15q-1 -34 -152 -119q-147 -84 -191 -84q-60 0 -60 64q0 27 9 52q-148 -117 -250 -117q-106 0 -106 104z M-201 60q0 -36 43 -36q90 0 237 112q152 117 152 203q0 51 -58 51q-72 0 -223 -130t-151 -200zM248 603q0 42 29 71t71 29q41 0 71.5 -29.5t30.5 -70.5q0 -43 -30.5 -71.5t-73.5 -28.5q-42 0 -70 29t-28 71zM282 603q0 -65 65 -65q66 0 66 65t-65 65q-66 0 -66 -65z" />
<glyph unicode="&#xe6;" horiz-adv-x="895" d="M-287 112q0 132 172 250q157 109 295 109q70 0 94 -36l26 37h108l-28 -39q93 40 150 40q71 0 71 -51q0 -73 -109 -127q-101 -43 -201 -87q-109 -56 -109 -135q0 -41 51 -41q110 0 272 106q81 54 163 109l12 -16l-6 -13q-148 -106 -203 -139q-138 -83 -223 -83 q-146 0 -146 124q-160 -124 -263 -124q-126 0 -126 116zM-226 67q0 -40 60 -40q108 0 281 148q26 77 139 177q6 14 6 30q0 24 -23 42q-21 15 -45 15q-80 0 -248 -146q-170 -149 -170 -226zM313 262q122 43 149 55q104 48 104 96q0 27 -25 27q-83 0 -228 -178z" />
<glyph unicode="&#xe7;" horiz-adv-x="466" d="M-335 -275q-1 16 10.5 31.5t26.5 15.5l11 -8l5 -11q-15 -20 -31 -13q-5 -30 33 -30q62 0 109 68q44 62 44 127q0 36 -32 36q-63 0 -104 -59l-19 -13v9q41 40 93 122q-67 20 -67 101q0 109 138 215q131 101 242 101q93 0 93 -62q0 -29 -21.5 -51.5t-50.5 -22.5 q-45 0 -45 38q0 50 56 50q14 0 31 -11q-19 31 -51 31q-78 0 -207.5 -125.5t-129.5 -203.5q0 -34 57 -34q90 0 236 93q156 99 159 99l13 -12q0 -44 -188 -129q-181 -82 -239 -79l-39 -57q25 15 51 15q68 0 68 -73t-62 -132t-136 -59q-35 0 -54 33z" />
<glyph unicode="&#xe8;" horiz-adv-x="453" d="M-262 98q0 108 137 218q131 105 241 105q63 0 63 -52q0 -60 -96 -106q-89 -38 -178 -77q-96 -50 -96 -122q0 -36 45 -36q95 0 239.5 96t146.5 96l10 -16l-4 -10q-273 -197 -377 -197q-131 0 -131 101zM-76 234q225 74 225 134q0 23 -22 23q-77 0 -203 -157zM-59 701 q0 42 39 42q25 0 40 -35q2 -16 8 -48q24 -84 118 -149l-7 -9q-61 30 -121 83q-77 67 -77 116z" />
<glyph unicode="&#xe9;" horiz-adv-x="453" d="M-262 98q0 108 137 218q131 105 241 105q63 0 63 -52q0 -60 -96 -106q-89 -38 -178 -77q-96 -50 -96 -122q0 -36 45 -36q95 0 239.5 96t146.5 96l10 -16l-4 -10q-273 -197 -377 -197q-131 0 -131 101zM-76 234q225 74 225 134q0 23 -22 23q-77 0 -203 -157zM128 511 q71 49 114 150q34 82 62 82t28 -37q0 -53 -74 -120q-59 -53 -123 -84z" />
<glyph unicode="&#xea;" horiz-adv-x="453" d="M-262 98q0 108 137 218q131 105 241 105q63 0 63 -52q0 -60 -96 -106q-89 -38 -178 -77q-96 -50 -96 -122q0 -36 45 -36q95 0 239.5 96t146.5 96l10 -16l-4 -10q-273 -197 -377 -197q-131 0 -131 101zM-76 234q225 74 225 134q0 23 -22 23q-77 0 -203 -157zM-20 513v7 q123 87 239 223h16q22 -137 84 -227l-13 -11q-55 46 -97 144q-134 -107 -229 -136z" />
<glyph unicode="&#xeb;" horiz-adv-x="453" d="M-262 98q0 108 137 218q131 105 241 105q63 0 63 -52q0 -60 -96 -106q-89 -38 -178 -77q-96 -50 -96 -122q0 -36 45 -36q95 0 239.5 96t146.5 96l10 -16l-4 -10q-273 -197 -377 -197q-131 0 -131 101zM-76 234q225 74 225 134q0 23 -22 23q-77 0 -203 -157zM0 555 q0 21 16 38t36 17q50 0 50 -55q0 -53 -50 -53q-20 0 -36 16.5t-16 36.5zM209 555q0 55 52 55q50 0 50 -55q0 -53 -50 -53q-52 0 -52 53z" />
<glyph unicode="&#xec;" horiz-adv-x="420" d="M-229 206l7 12q167 111 272 201h113q-87 -96 -174 -193q-142 -160 -144 -181l17 -11q64 -3 200 89q141 95 145 95l9 -14q-2 -36 -167 -122q-159 -84 -208 -84q-61 0 -61 65q0 50 39 107q3 4 72 90q-42 -31 -109 -67zM-67 701q0 42 39 42q24 0 39 -35q2 -16 9 -48 q23 -84 117 -149l-7 -9q-60 30 -121 83q-76 67 -76 116z" />
<glyph unicode="&#xed;" horiz-adv-x="420" d="M-229 206l7 12q167 111 272 201h113q-87 -96 -174 -193q-142 -160 -144 -181l17 -11q64 -3 200 89q141 95 145 95l9 -14q-2 -36 -167 -122q-159 -84 -208 -84q-61 0 -61 65q0 50 39 107q3 4 72 90q-42 -31 -109 -67zM128 511q71 49 114 150q34 82 62 82t28 -37 q0 -53 -74 -120q-59 -53 -123 -84z" />
<glyph unicode="&#xee;" horiz-adv-x="420" d="M-229 206l7 12q167 111 272 201h113q-87 -96 -174 -193q-142 -160 -144 -181l17 -11q64 -3 200 89q141 95 145 95l9 -14q-2 -36 -167 -122q-159 -84 -208 -84q-61 0 -61 65q0 50 39 107q3 4 72 90q-42 -31 -109 -67zM-46 511v7q129 91 239 223h16q22 -138 86 -228 l-13 -11q-57 46 -99 145q-134 -107 -229 -136z" />
<glyph unicode="&#xef;" horiz-adv-x="420" d="M-229 206l7 12q167 111 272 201h113q-87 -96 -174 -193q-142 -160 -144 -181l17 -11q64 -3 200 89q141 95 145 95l9 -14q-2 -36 -167 -122q-159 -84 -208 -84q-61 0 -61 65q0 50 39 107q3 4 72 90q-42 -31 -109 -67zM-22 555q0 21 16 38t36 17q53 0 53 -55q0 -53 -53 -53 q-19 0 -35.5 16.5t-16.5 36.5zM187 555q0 55 52 55t52 -55q0 -53 -52 -53t-52 53z" />
<glyph unicode="&#xf1;" horiz-adv-x="875" d="M-228 206l4 10q76 66 166 124q121 78 181 78q49 0 49 -53q0 -48 -39 -114q211 168 312 168q55 0 55 -65q0 -78 -101.5 -184.5t-101.5 -122.5q0 -13 19 -13q72 0 205 90q137 92 141 93l7 -10q-1 -42 -164 -127q-156 -82 -210 -82q-62 0 -62 70q0 61 91 170q69 75 139 151 l-18 5q-167 0 -523 -394h-113q151 178 309 382l-12 9q-61 1 -324 -197zM159 481q70 135 140 135q23 0 68.5 -26t68.5 -26q47 0 85 67h20q-53 -129 -137 -129q-22 0 -64 21.5t-64 21.5q-53 0 -98 -64h-19z" />
<glyph unicode="&#xf2;" horiz-adv-x="525" d="M-261 101q0 115 153 221q142 97 262 97q38 0 67 -18q35 -22 35 -58q0 -61 -76 -151q38 11 114 26l9 -13l-5 -11q-50 -33 -146 -32q-182 -166 -303 -166q-110 0 -110 105zM-206 60q0 -36 43 -36q91 0 237 112q153 117 153 203q0 51 -59 51q-72 0 -223 -130t-151 -200z M33 701q0 42 39 42q22 0 37 -35q2 -16 8 -48q24 -82 120 -149l-7 -9q-60 29 -121 83q-76 67 -76 116z" />
<glyph unicode="&#xf3;" horiz-adv-x="525" d="M-261 101q0 115 153 221q142 97 262 97q38 0 67 -18q35 -22 35 -58q0 -61 -76 -151q38 11 114 26l9 -13l-5 -11q-50 -33 -146 -32q-182 -166 -303 -166q-110 0 -110 105zM-206 60q0 -36 43 -36q91 0 237 112q153 117 153 203q0 51 -59 51q-72 0 -223 -130t-151 -200z M189 511q70 49 111 150q34 82 64 82q29 0 29 -37q0 -53 -74 -120q-60 -53 -123 -84z" />
<glyph unicode="&#xf4;" horiz-adv-x="525" d="M-261 101q0 115 153 221q142 97 262 97q38 0 67 -18q35 -22 35 -58q0 -61 -76 -151q38 11 114 26l9 -13l-5 -11q-50 -33 -146 -32q-182 -166 -303 -166q-110 0 -110 105zM-206 60q0 -36 43 -36q91 0 237 112q153 117 153 203q0 51 -59 51q-72 0 -223 -130t-151 -200z M48 511v7q141 102 239 216l13 7q23 -138 87 -228l-13 -11q-60 48 -98 145q-131 -105 -228 -136z" />
<glyph unicode="&#xf5;" horiz-adv-x="525" d="M-261 101q0 115 153 221q142 97 262 97q38 0 67 -18q35 -22 35 -58q0 -61 -76 -151q38 11 114 26l9 -13l-5 -11q-50 -33 -146 -32q-182 -166 -303 -166q-110 0 -110 105zM-206 60q0 -36 43 -36q91 0 237 112q153 117 153 203q0 51 -59 51q-72 0 -223 -130t-151 -200z M26 481q70 135 139 135q24 0 69 -26t69 -26q45 0 86 67h19q-53 -128 -136 -128q-23 0 -65 21t-65 21q-54 0 -96 -69z" />
<glyph unicode="&#xf6;" horiz-adv-x="525" d="M-261 101q0 115 153 221q142 97 262 97q38 0 67 -18q35 -22 35 -58q0 -61 -76 -151q38 11 114 26l9 -13l-5 -11q-50 -33 -146 -32q-182 -166 -303 -166q-110 0 -110 105zM-206 60q0 -36 43 -36q91 0 237 112q153 117 153 203q0 51 -59 51q-72 0 -223 -130t-151 -200z M65 555q0 20 15 37.5t35 17.5q52 0 52 -55q0 -53 -52 -53q-19 0 -34.5 17t-15.5 36zM274 555q0 55 50 55q52 0 52 -55q0 -53 -52 -53q-50 0 -50 53z" />
<glyph unicode="&#xf7;" horiz-adv-x="533" d="M18 336q11 35 277 329q258 286 318 336l5 2l5 -4q-34 -57 -281 -332q-237 -263 -312 -333l-7 -2z" />
<glyph unicode="&#xf8;" horiz-adv-x="590" d="M-374 -61l111 89q-29 26 -29 81q0 132 169 252q158 111 295 111q47 0 82 -26l44 35h47l-71 -55q13 -21 13 -39q0 -72 -85 -171q30 -1 78.5 17.5t70.5 19.5l12 -15l-7 -13q-66 -44 -184 -44q-206 -185 -347 -185q-28 0 -64 13l-89 -70h-46zM-231 62l1 -5l460 369 q-20 13 -42 13q-87 0 -253 -146t-166 -231zM-211 35q14 -8 29 -8q102 0 266 127q171 131 171 229l-5 19z" />
<glyph unicode="&#xf9;" horiz-adv-x="742" d="M-228 208q2 9 116 89q122 88 151 122h133q-88 -97 -176 -195q-144 -162 -146 -182l14 -9q142 -7 492 386h135l-176 -194q-145 -162 -145 -181q0 -14 21 -14q122 0 340 189l7 -13l-3 -9q-215 -199 -366 -199q-62 0 -62 59q0 44 39 111q-215 -174 -312 -174q-56 0 -56 65 q0 53 129 212q-51 -37 -123 -78zM80 701q0 42 37 42q25 0 39 -35l9 -48q24 -82 120 -149l-7 -9q-61 29 -122 82q-76 67 -76 117z" />
<glyph unicode="&#xfa;" horiz-adv-x="742" d="M-228 208q2 9 116 89q122 88 151 122h133q-88 -97 -176 -195q-144 -162 -146 -182l14 -9q142 -7 492 386h135l-176 -194q-145 -162 -145 -181q0 -14 21 -14q122 0 340 189l7 -13l-3 -9q-215 -199 -366 -199q-62 0 -62 59q0 44 39 111q-215 -174 -312 -174q-56 0 -56 65 q0 53 129 212q-51 -37 -123 -78zM263 511q69 51 112 152q33 80 63 80q29 0 29 -37q0 -53 -75 -120q-58 -52 -123 -84z" />
<glyph unicode="&#xfb;" horiz-adv-x="742" d="M-228 208q2 9 116 89q122 88 151 122h133q-88 -97 -176 -195q-144 -162 -146 -182l14 -9q142 -7 492 386h135l-176 -194q-145 -162 -145 -181q0 -14 21 -14q122 0 340 189l7 -13l-3 -9q-215 -199 -366 -199q-62 0 -62 59q0 44 39 111q-215 -174 -312 -174q-56 0 -56 65 q0 53 129 212q-51 -37 -123 -78zM133 509v7q142 101 239 216l15 6q22 -137 87 -227l-13 -11q-58 46 -100 144q-127 -104 -228 -135z" />
<glyph unicode="&#xfc;" horiz-adv-x="742" d="M-228 208q2 9 116 89q122 88 151 122h133q-88 -97 -176 -195q-144 -162 -146 -182l14 -9q142 -7 492 386h135l-176 -194q-145 -162 -145 -181q0 -14 21 -14q122 0 340 189l7 -13l-3 -9q-215 -199 -366 -199q-62 0 -62 59q0 44 39 111q-215 -174 -312 -174q-56 0 -56 65 q0 53 129 212q-51 -37 -123 -78zM128 555q0 21 16 38t36 17q52 0 52 -55q0 -53 -52 -53q-19 0 -35.5 16.5t-16.5 36.5zM337 555q0 55 52 55t52 -55q0 -53 -52 -53t-52 53z" />
<glyph unicode="&#xfd;" horiz-adv-x="786" d="M319 550q85 53 120 146q-1 83 56 83q29 0 29 -36q0 -54 -74 -120q-60 -53 -124 -82zM-516 -434q0 118 222 229q59 30 329 131l182 214q-193 -140 -296 -140q-33 0 -56.5 26t-23.5 59q0 63 108 174q112 114 113 124l-14 10h-1q-43 0 -146 -98q-108 -103 -115 -104l-13 10 q3 37 123.5 127.5t162.5 90.5q57 0 57 -72q0 -56 -106 -171.5t-106 -134.5q0 -13 22 -13q166 0 554 391h113l-376 -428q124 43 273 160q24 24 79 65l11 1l7 -10l-3 -10q-46 -67 -196 -146q-209 -110 -212 -112q-50 -34 -178 -163q-135 -135 -211 -191q-126 -92 -227 -92 q-76 0 -76 73zM-489 -436q0 -46 47 -46q119 0 252 136q8 9 192 235q-229 -88 -292 -120q-199 -102 -199 -205z" />
<glyph unicode="&#xff;" horiz-adv-x="786" d="M-527 -434q0 117 222 229q60 30 329 131l182 214q-193 -140 -296 -140q-32 0 -56 26t-24 59q0 63 110 175.5t111 122.5l-14 10q-43 1 -147 -98q-107 -103 -115 -104l-13 10q3 37 123.5 127.5t162.5 90.5q57 0 57 -71q0 -58 -105.5 -173t-105.5 -134q0 -13 21 -13 q167 0 554 391h113l-376 -428q124 43 273 160q24 24 79 65l11 1l7 -10l-2 -10q-58 -84 -306 -210q-37 -14 -103 -48q-49 -33 -177 -162q-135 -135 -212 -192q-125 -92 -226 -92q-77 0 -77 73zM-498 -434q0 -48 46 -48q119 0 251 137q9 8 192 234q-229 -88 -291 -119 q-198 -102 -198 -204zM139 555q0 21 16 38t36 17q52 0 52 -55q0 -53 -52 -53q-20 0 -36 16.5t-16 36.5zM348 555q0 55 52 55t52 -55q0 -53 -52 -53t-52 53z" />
<glyph unicode="&#x152;" horiz-adv-x="2257" d="M189 322q0 202 150 446q119 193 304 372q607 588 1116 588q338 0 336 -229q263 135 433 135q73 0 125 -29q65 -36 65 -105q0 -161 -381 -321q-292 -123 -531 -159q2 -44 28 -78l51 2q167 6 167 -78q0 -46 -71 -46q-53 0 -158 91q-146 -7 -309 -85q-65 -128 -227 -303 q-138 -152 -277 -265q-3 -18 -3 -40q0 -95 118 -142q87 -34 200 -34q226 0 455 107q280 130 280 330q0 61 -60 93q-48 25 -114 25q-181 0 -392 -131q-180 -111 -319 -274l-10 -5l-12 13l1 10q91 149 325.5 283.5t406.5 134.5q75 0 133 -34q69 -41 69 -111q0 -220 -284 -359 q-234 -115 -479 -115q-296 0 -384 194q-92 -78 -219 -132q-136 -59 -247 -59q-137 0 -213 87q-73 83 -73 223zM265 202q0 -81 72 -123q59 -35 146 -35q201 0 449 190q-9 34 -9 61q0 208 200 384q172 151 396 208q165 282 165 470q0 84 -34 138q-41 64 -120 64 q-161 0 -344.5 -187.5t-183.5 -349.5q0 -51 30 -86.5t80 -35.5q277 0 461 518l15 11q13 0 13 -18q0 -7 -19 -66q-56 -173 -175 -310q-144 -166 -299 -166q-64 0 -102 47q-36 43 -36 108q0 194 173.5 379.5t365.5 185.5q201 0 201 -237q0 -180 -152 -454q103 29 241 44 q-22 30 -33 74q-51 -11 -115 -11q-17 0 -17 13q0 21 128 24q-3 275 306 444l2 26q4 102 -109 152q-83 36 -201 36q-627 0 -1267 -951q-228 -339 -228 -547zM1023 308q264 221 444 492q-312 -179 -444 -492zM1808 1046q246 48 509 157q370 153 370 301q0 100 -156 100 q-183 0 -422 -193q-225 -183 -301 -365zM1873 911q64 -61 114 -61q32 0 32 21q0 44 -127 40h-19z" />
<glyph unicode="&#x153;" horiz-adv-x="886" d="M-293 111q0 130 171 250q158 111 293 111q45 0 79 -22q39 -25 39 -68q131 92 228 92q71 0 71 -58q0 -69 -108 -121q-100 -43 -201 -86q-108 -56 -108 -137q0 -40 50 -40q108 0 270 106q83 55 165 109l13 -17l-6 -12q-147 -106 -203 -139q-137 -83 -223 -83 q-144 0 -144 120q-161 -121 -277 -121q-109 0 -109 116zM-232 68q0 -16 16.5 -28.5t32.5 -12.5q122 0 283 141q31 93 152 190l3 24q0 24 -21 40.5t-46 16.5q-81 0 -249 -146q-171 -148 -171 -225zM300 262q115 39 149 55q104 48 104 96q0 26 -25 26q-75 0 -228 -177z" />
<glyph unicode="&#x178;" horiz-adv-x="1406" d="M201 176q0 52 29 87.5t79 35.5q58 0 58 -48q0 -26 -18.5 -46t-43.5 -20q-29 0 -55 33q-12 -26 -12 -55q0 -66 89 -98q63 -23 145 -23q213 0 420 196q78 74 310 369q-291 -253 -465 -253q-143 0 -143 104q0 127 159 296q147 141 295 283q159 159 159 262q0 65 -95 103 q-74 31 -150 31q-195 0 -411 -116q-250 -134 -250 -311q0 -115 162 -115q231 0 545 288q34 34 77 71l12 -12l-4 -10q-358 -364 -629 -364q-78 0 -129 32q-61 38 -61 113q0 192 259 330q221 118 433 118q95 0 173 -39q97 -48 97 -135q0 -155 -150 -333q-9 -10 -281 -281 q-151 -151 -151 -238q0 -50 87 -50q117 0 313 140q153 110 269 235l491 529h139l-738 -824q-183 -204 -328 -303q-206 -140 -415 -140q-102 0 -173 29q-98 42 -98 129zM1543 1540q86 60 119 149q0 83 56 83q29 0 29 -38q0 -53 -74 -120q-59 -52 -124 -83z" />
<glyph unicode="&#x2c6;" horiz-adv-x="396" d="M72 1540v7q127 92 237 223h15q22 -138 87 -228l-13 -11q-58 46 -100 145q-127 -104 -226 -136z" />
<glyph unicode="&#x2dc;" horiz-adv-x="359" d="M111 1512q68 137 141 137q24 0 68.5 -25.5t68.5 -25.5q46 0 87 67h17q-48 -129 -136 -129q-21 0 -63.5 21t-64.5 21q-58 0 -99 -66h-19z" />
<glyph unicode="&#x2000;" horiz-adv-x="949" />
<glyph unicode="&#x2001;" horiz-adv-x="1898" />
<glyph unicode="&#x2002;" horiz-adv-x="949" />
<glyph unicode="&#x2003;" horiz-adv-x="1898" />
<glyph unicode="&#x2004;" horiz-adv-x="632" />
<glyph unicode="&#x2005;" horiz-adv-x="474" />
<glyph unicode="&#x2006;" horiz-adv-x="316" />
<glyph unicode="&#x2007;" horiz-adv-x="316" />
<glyph unicode="&#x2008;" horiz-adv-x="237" />
<glyph unicode="&#x2009;" horiz-adv-x="379" />
<glyph unicode="&#x200a;" horiz-adv-x="105" />
<glyph unicode="&#x2010;" horiz-adv-x="431" d="M-89 229l24 60q15 27 49 27q8 0 116 -4q70 -3 115 3l-24 -58q-17 -29 -48 -29q-8 0 -116 4q-70 3 -116 -3z" />
<glyph unicode="&#x2011;" horiz-adv-x="431" d="M-89 229l24 60q15 27 49 27q8 0 116 -4q70 -3 115 3l-24 -58q-17 -29 -48 -29q-8 0 -116 4q-70 3 -116 -3z" />
<glyph unicode="&#x2012;" horiz-adv-x="431" d="M-89 229l24 60q15 27 49 27q8 0 116 -4q70 -3 115 3l-24 -58q-17 -29 -48 -29q-8 0 -116 4q-70 3 -116 -3z" />
<glyph unicode="&#x2013;" horiz-adv-x="781" d="M-24 229q12 30 24 59q16 28 49 28q9 0 202 -7q121 -4 201 6l-24 -58q-17 -29 -48 -29q-10 0 -202 7q-122 4 -202 -6z" />
<glyph unicode="&#x2014;" horiz-adv-x="1104" d="M-50 229l24 58q17 29 48 29q88 0 262.5 -6t261.5 -6q130 0 217 11l-24 -56q-18 -31 -46 -31q-86 0 -258 6t-258 6q-135 0 -227 -11z" />
<glyph unicode="&#x2018;" horiz-adv-x="344" d="M671 1086q0 29 73.5 88.5t102.5 59.5l11 -10q-125 -169 -156 -169t-31 31z" />
<glyph unicode="&#x2019;" horiz-adv-x="331" d="M654 1063q124 169 154 169q33 0 33 -31q0 -30 -73.5 -89t-103.5 -58z" />
<glyph unicode="&#x201a;" horiz-adv-x="331" d="M59 -82q124 169 154 169q33 0 33 -31q0 -30 -73.5 -89t-104.5 -58z" />
<glyph unicode="&#x201c;" horiz-adv-x="496" d="M687 1085q0 31 74 90t105 59l9 -9q-125 -170 -156 -170q-32 0 -32 30zM838 1085q0 29 75 90q72 59 102 59l10 -10q-5 -20 -71 -93q-67 -76 -83 -76q-33 0 -33 30z" />
<glyph unicode="&#x201d;" horiz-adv-x="496" d="M665 1063q124 169 154 169q33 0 33 -31q0 -30 -73.5 -89t-104.5 -58zM815 1063q124 169 154 169q33 0 33 -31q0 -30 -73.5 -89t-104.5 -58z" />
<glyph unicode="&#x201e;" horiz-adv-x="496" d="M76 -63q124 169 154 169q33 0 33 -31q0 -30 -73.5 -88.5t-104.5 -58.5zM226 -63q123 169 154 169q33 0 33 -31q0 -30 -73.5 -88.5t-104.5 -58.5z" />
<glyph unicode="&#x2022;" horiz-adv-x="329" d="M-80 350q20 43 63 67q29 -14 63 -63q-16 -40 -66 -66q-38 23 -60 62z" />
<glyph unicode="&#x2026;" horiz-adv-x="1051" d="M-62 11l10 13h54l300 267l130 380h-54l-11 11l11 13h237l11 -12q1 -12 -28 -14q-18 -1 -37 2l-70 -221l248 221h-52l-12 11q0 17 70 17q17 0 51.5 -2t50.5 -2l10 -12l-10 -12h-54l-326 -295l-124 -352h55l11 -12l-11 -12h-237l-11 12q0 12 28 14q18 1 37 -2l65 192 l-224 -192h53l11 -12q1 -17 -69 -17q-18 0 -52 2.5t-51 2.5z" />
<glyph unicode="&#x202f;" horiz-adv-x="379" />
<glyph unicode="&#x2039;" horiz-adv-x="322" d="M-135 475q0 41 39 41q18 0 18 -21q0 -43 -39 -27q11 -33 54 -33q48 0 133 62q90 64 90 109q0 18 -18 18q-16 0 -44 -14t-44 -14l-8 5l4 9q60 29 121 59q80 47 79 96l-15 14q-23 0 -80 -33.5t-57 -52.5l7 -7q43 -2 121 79l5 -5q0 -19 -51.5 -54t-73.5 -35q-28 0 -28 28 q0 37 51 67q45 27 85 27q67 0 67 -51q0 -41 -46 -69l-81 -37q39 -17 39 -44q0 -71 -95 -125q-83 -47 -160 -47q-26 0 -48 14q-25 16 -25 41z" />
<glyph unicode="&#x203a;" horiz-adv-x="322" d="M-73 510q3 11 38 42q24 20 47 40q89 86 186 199h65l-298 -262q44 13 133 13l93 107h37l-85 -114q14 0 41 7t42 6l13 -8q0 -16 -46 -21q-22 -2 -60 -1l-77 -99h-56l83 103q-31 4 -39 4q-19 0 -56.5 -11t-56.5 -10z" />
<glyph unicode="&#x2044;" horiz-adv-x="1406" d="M179 176q0 53 29 88t81 35q56 0 56 -48q0 -26 -18 -46t-44 -20q-29 0 -55 33q-11 -26 -11 -55q0 -66 88 -98q64 -23 146 -23q215 0 421 195q86 81 308 370q-290 -253 -465 -253q-143 0 -143 104q0 127 159 296q148 141 295 283q159 159 159 262q0 65 -95 103 q-74 31 -150 31q-195 0 -410 -115q-249 -133 -249 -309q0 -118 161 -118q135 0 284 89q98 59 219 170q106 97 119 101l14 -13l-5 -10q-361 -364 -631 -364q-77 0 -128 32q-61 37 -61 110q0 193 258 332q222 119 433 119q96 0 173 -39q98 -48 98 -135q0 -155 -151 -333 q-9 -10 -280 -281q-151 -151 -151 -238q0 -50 86 -50q117 0 313 140q154 110 270 235l491 529h139l-739 -824q-183 -204 -328 -303q-206 -140 -415 -140q-101 0 -173 29q-98 42 -98 129zM1406 1586q0 21 15.5 38t36.5 17q50 0 50 -55q0 -52 -50 -52q-20 0 -36 16t-16 36z M1614 1586q0 55 53 55q50 0 50 -55q0 -52 -50 -52q-53 0 -53 52z" />
<glyph unicode="&#x205f;" horiz-adv-x="474" />
<glyph unicode="&#x2122;" horiz-adv-x="322" d="M4 488q20 23 50 60q-37 13 -37 47q0 66 71 120.5t136 46.5q11 12 65 80l6 -6q-19 -26 -56 -78q26 -15 26 -37q0 -40 -29 -38l-14 7l-2 14l2 10q8 14 26 13q-5 10 -18 20l-145 -183q21 3 84 34l5 -5q0 -11 -43.5 -27.5t-58.5 -17.5q-25 -34 -63 -68zM44 579q0 -13 21 -15 l150 185l-5 1q-33 0 -99.5 -68.5t-66.5 -102.5z" />
<glyph unicode="&#xe000;" horiz-adv-x="415" d="M0 415h415v-415h-415v415z" />
<glyph unicode="&#xfb01;" horiz-adv-x="860" d="M211 206l7 12q167 111 272 201h113q-87 -96 -174 -193q-142 -160 -144 -181l17 -11h4q64 0 196 89q141 95 145 95l9 -14q-2 -36 -167 -122q-159 -84 -208 -84q-61 0 -61 65q0 50 39 107q3 4 72 90q-42 -31 -109 -67zM690 647q19 42 61 65q31 -15 63 -61q-14 -35 -65 -68 q-37 25 -59 64zM-708 -513q157 185 314 371q173 214 272 398q-40 -30 -102 -67l-12 14l6 11q82 56 130 85q32 123 93 123q14 0 24.5 -14.5t8.5 -27.5q39 26 111 85q187 200 375 400q281 283 413 283q27 0 49 -18.5t22 -46.5q0 -128 -288 -321q-46 -30 -410 -238 q-33 -18 -305 -354q27 -18 53 -18q49 0 106 31q61 34 70 35l9 -13l-5 -11q-103 -69 -185 -69q-34 0 -71 21l-565 -659h-113zM-141 155l54 63l-9 27zM-65 259l4 -16l81 89q-27 -13 -53 -27q-32 -20 -32 -46zM330 570q154 68 368 217q269 187 269 281q0 52 -47 52 q-111 0 -319 -224q-77 -82 -271 -326z" />
<glyph unicode="&#xfb02;" horiz-adv-x="860" d="M217 207l6 11q71 46 143 92q82 56 128 109l200 240q188 219 330 347q198 176 304 176q29 0 49.5 -22.5t20.5 -51.5q0 -104 -149 -228q-96 -80 -304 -202q-201 -118 -240 -151q-88 -78 -204 -217q-96 -114 -191 -229q-10 -11 -22 -36l17 -11h5q74 0 199 86q141 97 144 97 l7 -10q-1 -47 -162 -130q-153 -79 -211 -79q-63 0 -63 65q0 50 39 107q5 6 73 90q-43 -30 -108 -66zM729 570q307 191 374 239q269 193 269 299q0 48 -50 48q-114 0 -323 -240q-61 -69 -270 -346zM-708 -513q157 185 314 371q173 214 272 398q-40 -30 -102 -67l-12 14l6 11 q82 56 130 85q32 123 93 123q14 0 24.5 -14.5t8.5 -27.5q39 26 111 85q187 200 375 400q281 283 413 283q27 0 49 -18.5t22 -46.5q0 -128 -288 -321q-46 -30 -410 -238q-33 -18 -305 -354q27 -18 53 -18q49 0 106 31q61 34 70 35l9 -13l-5 -11q-103 -69 -185 -69 q-34 0 -71 21l-565 -659h-113zM-141 155l54 63l-9 27zM-65 259l4 -16l81 89q-27 -13 -53 -27q-32 -20 -32 -46zM330 570q154 68 368 217q269 187 269 281q0 52 -47 52q-111 0 -319 -224q-77 -82 -271 -326z" />
<glyph unicode="&#xfb03;" horiz-adv-x="1300" d="M651 206l7 12q167 111 272 201h113q-87 -96 -174 -193q-142 -160 -144 -181l17 -11h4q64 0 196 89q141 95 145 95l9 -14q-2 -36 -167 -122q-159 -84 -208 -84q-61 0 -61 65q0 50 39 107q3 4 72 90q-42 -31 -109 -67zM1130 647q19 42 61 65q31 -15 63 -61q-14 -35 -65 -68 q-37 25 -59 64zM-268 -513q157 185 314 371q173 214 272 398q-40 -30 -102 -67l-12 14l6 11q82 56 130 85q32 123 93 123q14 0 24.5 -14.5t8.5 -27.5q39 26 111 85q187 200 375 400q281 283 413 283q27 0 49 -18.5t22 -46.5q0 -128 -288 -321q-46 -30 -410 -238 q-33 -18 -305 -354q27 -18 53 -18q49 0 106 31q61 34 70 35l9 -13l-5 -11q-103 -69 -185 -69q-34 0 -71 21l-565 -659h-113zM299 155l54 63l-9 27zM375 259l4 -16l81 89q-27 -13 -53 -27q-32 -20 -32 -46zM770 570q154 68 368 217q269 187 269 281q0 52 -47 52 q-111 0 -319 -224q-77 -82 -271 -326zM-708 -513q157 185 314 371q173 214 272 398q-40 -30 -102 -67l-12 14l6 11q82 56 130 85q32 123 93 123q14 0 24.5 -14.5t8.5 -27.5q39 26 111 85q187 200 375 400q281 283 413 283q27 0 49 -18.5t22 -46.5q0 -128 -288 -321 q-46 -30 -410 -238q-33 -18 -305 -354q27 -18 53 -18q49 0 106 31q61 34 70 35l9 -13l-5 -11q-103 -69 -185 -69q-34 0 -71 21l-565 -659h-113zM-141 155l54 63l-9 27zM-65 259l4 -16l81 89q-27 -13 -53 -27q-32 -20 -32 -46zM330 570q154 68 368 217q269 187 269 281 q0 52 -47 52q-111 0 -319 -224q-77 -82 -271 -326z" />
<glyph unicode="&#xfb04;" horiz-adv-x="1300" d="M657 207l6 11q71 46 143 92q82 56 128 109l200 240q188 219 330 347q198 176 304 176q29 0 49.5 -22.5t20.5 -51.5q0 -104 -149 -228q-96 -80 -304 -202q-201 -118 -240 -151q-88 -78 -204 -217q-96 -114 -191 -229q-10 -11 -22 -36l17 -11h5q74 0 199 86q141 97 144 97 l7 -10q-1 -47 -162 -130q-153 -79 -211 -79q-63 0 -63 65q0 50 39 107q5 6 73 90q-43 -30 -108 -66zM1169 570q307 191 374 239q269 193 269 299q0 48 -50 48q-114 0 -323 -240q-61 -69 -270 -346zM-268 -513q157 185 314 371q173 214 272 398q-40 -30 -102 -67l-12 14l6 11 q82 56 130 85q32 123 93 123q14 0 24.5 -14.5t8.5 -27.5q39 26 111 85q187 200 375 400q281 283 413 283q27 0 49 -18.5t22 -46.5q0 -128 -288 -321q-46 -30 -410 -238q-33 -18 -305 -354q27 -18 53 -18q49 0 106 31q61 34 70 35l9 -13l-5 -11q-103 -69 -185 -69 q-34 0 -71 21l-565 -659h-113zM299 155l54 63l-9 27zM375 259l4 -16l81 89q-27 -13 -53 -27q-32 -20 -32 -46zM770 570q154 68 368 217q269 187 269 281q0 52 -47 52q-111 0 -319 -224q-77 -82 -271 -326zM-708 -513q157 185 314 371q173 214 272 398q-40 -30 -102 -67 l-12 14l6 11q82 56 130 85q32 123 93 123q14 0 24.5 -14.5t8.5 -27.5q39 26 111 85q187 200 375 400q281 283 413 283q27 0 49 -18.5t22 -46.5q0 -128 -288 -321q-46 -30 -410 -238q-33 -18 -305 -354q27 -18 53 -18q49 0 106 31q61 34 70 35l9 -13l-5 -11 q-103 -69 -185 -69q-34 0 -71 21l-565 -659h-113zM-141 155l54 63l-9 27zM-65 259l4 -16l81 89q-27 -13 -53 -27q-32 -20 -32 -46zM330 570q154 68 368 217q269 187 269 281q0 52 -47 52q-111 0 -319 -224q-77 -82 -271 -326z" />
</font>
</defs>
</svg>
